<svg xmlns="http://www.w3.org/2000/svg" xmlns:xlink="http://www.w3.org/1999/xlink" viewBox="0 0 300 200"><defs><style>.cls-1{fill:#fff;}.cls-2{fill:none;}.cls-3{fill:url(#linear-gradient);}.cls-4{fill:#ff4338;}.cls-5{fill:#005cb9;}</style><linearGradient id="linear-gradient" x1="149.58" y1="72.76" x2="149.58" y2="44.9" gradientUnits="userSpaceOnUse"><stop offset="0" stop-color="#dbd9d6" stop-opacity="0"/><stop offset="0.01" stop-color="#dbd9d6" stop-opacity="0.02"/><stop offset="0.16" stop-color="#dbd9d6" stop-opacity="0.28"/><stop offset="0.31" stop-color="#dbd9d6" stop-opacity="0.5"/><stop offset="0.46" stop-color="#dbd9d6" stop-opacity="0.68"/><stop offset="0.6" stop-color="#dbd9d6" stop-opacity="0.82"/><stop offset="0.74" stop-color="#dbd9d6" stop-opacity="0.92"/><stop offset="0.88" stop-color="#dbd9d6" stop-opacity="0.98"/><stop offset="1" stop-color="#dbd9d6"/></linearGradient></defs><title>aquafiina-logo</title><g id="boundary"><rect class="cls-1" width="300" height="200"/></g><g id="Layer_1" data-name="Layer 1"><rect class="cls-2" x="-14.17" y="-17.26" width="328.34" height="234.53"/><path class="cls-3" d="M115.13,79.23a4.61,4.61,0,0,1-3-8.1l27.64-25.89a4.62,4.62,0,0,1,6.07,0L160.23,58a1.22,1.22,0,0,0,1.54.06l3.72-2.8a4.63,4.63,0,0,1,5.8.2L187,71.14a4.61,4.61,0,0,1-2.7,8.07"/><path class="cls-4" d="M161.76,58.08l3.72-2.8a4.63,4.63,0,0,1,5.11-.29,11.83,11.83,0,0,0-19.72-5.26L160.23,58A1.22,1.22,0,0,0,161.76,58.08Z"/><path class="cls-5" d="M149.5,91.59a2.05,2.05,0,0,0-2.05-1.3h-.95a2.14,2.14,0,0,0-2.15,1.31c-1.91,5.73-9.2,28.72-11.17,35.08-.36,1.16.25,2.31,2,2.24,1.94-.07,2.13-.87,2.42-1.76l3.31-10.33a.26.26,0,0,1,.25-.15h11.61a.26.26,0,0,1,.25.15l3.35,10.47c.23.72.69,1.53,2.41,1.54s2.29-1,1.82-2.54C159.45,122.76,152.3,100.23,149.5,91.59ZM134.93,128.7h0Zm16.71-15.94h-9.41c-.12,0-.3,0-.21-.33.78-2.61,3.9-12.16,4.68-14.77a.25.25,0,0,1,.48,0c.82,2.65,3.91,12.25,4.68,14.84C151.92,112.68,151.82,112.76,151.63,112.76ZM130.71,92.37v23.49c0,3.16-.57,13.55-12.54,14-7.72.3-12.43-3.74-12.43-13.3l0-24.15a2.17,2.17,0,0,1,4.35,0l0,23.35c0,8.44,3.82,10.33,8.1,10.14,3.93-.17,8.22-2.15,8.24-10.64l0-22.89a2,2,0,0,1,2.21-2.08A2,2,0,0,1,130.71,92.37Zm52.58-.12a1.89,1.89,0,0,1-2.08,2H168.45c-.27,0-.36.13-.36.35s0,10.47,0,12.59c0,.33.11.38.34.38h12.11a2,2,0,0,1,1.55,3.36,2.14,2.14,0,0,1-1.51.61H168.49c-.27,0-.38.09-.38.36s0,15.44,0,15.44A1.92,1.92,0,0,1,166,129c-1.31,0-2.16-.71-2.16-1.75l0-35.24a1.76,1.76,0,0,1,1.84-1.75h15.46A2.07,2.07,0,0,1,183.29,92.26Zm8.51.15V128.7c0,.67-.57,1.72-2.21,1.63-1.44-.08-2.12-.78-2.12-1.83l0-36.1a2,2,0,0,1,2.18-2.1A2,2,0,0,1,191.8,92.41Zm31.74.14v39.79c0,1.26-1.11,1.77-2.41,1.66a2.34,2.34,0,0,1-2.09-1.24c-5-10-9.69-21.27-15.07-31.9-.1-.21-.32-.09-.32.08s0,28.83,0,28.83a1.82,1.82,0,0,1-2.15,1.67,2,2,0,0,1-2.16-2c0-.84,0-37.34,0-37.34,0-1,.85-1.77,2.28-1.77a2.25,2.25,0,0,1,2.26,1.11c5.4,10.48,10.09,21.68,14.9,31.26.23.46.44.34.44-.1s0-30,0-30a2.16,2.16,0,1,1,4.31,0Zm-97.84,42.14a20.39,20.39,0,0,1-8.05,1.6c-10.12,0-13.43-6.09-21.66-7.45,3.7-3.75,4.14-9.12,4.15-11.27V104.78c0-13.77-9.19-14.87-13-14.87s-13,1.43-13,14.87V119c0,12.63,8,14.09,13,13.68l.36-.05h.18a48,48,0,0,1,5-.34c9.18,0,12.65,7.8,24.9,7.8,0,0,4.61,0,7.68-2,1.43-.95,2.42-2.12,2.34-3.15S126.57,134.33,125.69,134.69Zm-47.3-16.47v-13c0-7.49,3-11.31,8.72-11.31s8.71,3.47,8.71,11.26v12.08c0,5-1.56,10.91-8.8,11.5C84.56,128.92,78.36,129.05,78.39,118.22Z"/><path class="cls-5" d="M72.85,132.59,60.58,86.92a2.29,2.29,0,0,0-2.2-1.46H57.22a2.18,2.18,0,0,0-2.11,1.48L41.66,138.75c-.34,1.23.35,2.45,2.21,2.21A2.3,2.3,0,0,0,46,139.32l4.75-18.38a.34.34,0,0,1,.29-.24c4.18-.34,9.49-.65,13.71-1a.22.22,0,0,1,.22.14l3.75,14c.23.71.74,1.38,2.27,1.23A2,2,0,0,0,72.85,132.59Zm-9.36-16.84c-3.41.22-7.84.48-11.27.73a.22.22,0,0,1-.21-.31l5.57-21.43c.1-.33.61-.3.65,0l5.55,20.7A.28.28,0,0,1,63.49,115.75Z"/><path class="cls-5" d="M228.16,135.11c1.53.15,2-.52,2.27-1.23l3.75-14a.22.22,0,0,1,.22-.14c4.22.3,9.53.61,13.71,1a.34.34,0,0,1,.29.24l4.75,18.38a2.3,2.3,0,0,0,2.14,1.65c1.86.24,2.56-1,2.21-2.21L244,86.94a2.18,2.18,0,0,0-2.11-1.48h-1.17a2.29,2.29,0,0,0-2.2,1.46l-12.27,45.67A2,2,0,0,0,228.16,135.11Zm7.23-19.71,5.55-20.7c0-.27.55-.3.65,0l5.57,21.43a.22.22,0,0,1-.21.31c-3.43-.24-7.86-.51-11.27-.73A.28.28,0,0,1,235.38,115.4Z"/><path class="cls-5" d="M259.17,137.31a3.45,3.45,0,1,1,3.45,3.45A3.45,3.45,0,0,1,259.17,137.31Zm6.12,0a2.67,2.67,0,1,0-2.67,2.73A2.71,2.71,0,0,0,265.29,137.31Zm-3.46.33V139a.31.31,0,0,1-.63,0v-3.42c0-.14.07-.2.22-.2h1.26c1,0,1.44.28,1.44,1.13a1,1,0,0,1-1,1.1l.85,1.3a.56.56,0,0,1,.1.24c0,.1-.19.16-.35.16a.39.39,0,0,1-.38-.21l-.91-1.46Zm.72-.57c.49,0,.93,0,.93-.6s-.47-.51-.88-.51h-.78v1.12Z"/></g></svg>