<svg xmlns="http://www.w3.org/2000/svg" viewBox="0 0 707.28 341.02"><title>circle-pattern</title><g id="Layer_2" data-name="Layer 2"><g id="Layer_1-2" data-name="Layer 1"><path d="M409,278a4.69,4.69,0,1,0,4.71,4.69A4.68,4.68,0,0,0,409,278Z"/><path d="M685.84,215.19a4,4,0,1,0,4.07,4A4,4,0,0,0,685.84,215.19Z"/><path d="M487.91,323.52A3.49,3.49,0,1,0,491.4,327,3.5,3.5,0,0,0,487.91,323.52Z"/><path d="M556.39,245.16a9.64,9.64,0,1,0,9.61,9.68A9.63,9.63,0,0,0,556.39,245.16Z"/><path d="M464.48,313.56a2.61,2.61,0,1,0,2.67,2.61A2.61,2.61,0,0,0,464.48,313.56Z"/><path d="M529.41,208.34A2.62,2.62,0,1,0,532,211,2.63,2.63,0,0,0,529.41,208.34Z"/><path d="M476.33,279.3a2.63,2.63,0,1,0,0,5.25,2.63,2.63,0,0,0,0-5.25Z"/><path d="M517.57,230.39a2.63,2.63,0,1,0,2.62,2.62A2.64,2.64,0,0,0,517.57,230.39Z"/><path d="M628,335.73a2.63,2.63,0,1,0,2.64,2.61A2.62,2.62,0,0,0,628,335.73Z"/><path d="M393.13,255.28a3.5,3.5,0,1,0,3.49,3.51A3.49,3.49,0,0,0,393.13,255.28Z"/><path d="M592,282.93a28.89,28.89,0,1,0,28.9,28.87A28.86,28.86,0,0,0,592,282.93Z"/><path d="M440.87,301.11a3.49,3.49,0,1,0,3.49,3.49A3.49,3.49,0,0,0,440.87,301.11Z"/><path d="M373.6,247.33a3.5,3.5,0,0,0,0,7,3.5,3.5,0,0,0,0-7Z"/><path d="M255.45,330.64a5.19,5.19,0,1,1-5.18,5.19A5.19,5.19,0,0,1,255.45,330.64Z"/><path d="M148.26,156.26a18.4,18.4,0,1,1-9.61,24.18A18.37,18.37,0,0,1,148.26,156.26Z"/><path d="M544.48,156.26a18.4,18.4,0,1,1-9.61,24.18A18.37,18.37,0,0,1,544.48,156.26Z"/><path d="M298.24,278a4.69,4.69,0,1,1-4.71,4.69A4.69,4.69,0,0,1,298.24,278Z"/><path d="M647.63,307.32a7.22,7.22,0,1,0,7.2,7.22A7.22,7.22,0,0,0,647.63,307.32Z"/><path d="M59.65,307.32a7.22,7.22,0,1,1-7.22,7.23A7.22,7.22,0,0,1,59.65,307.32Z"/><path d="M474,293.23a7.12,7.12,0,1,0,7.12,7.12A7.14,7.14,0,0,0,474,293.23Z"/><ellipse cx="233.24" cy="300.35" rx="7.11" ry="7.12"/><path d="M509.6,55.19a9.23,9.23,0,1,0,9.23,9.23A9.24,9.24,0,0,0,509.6,55.19Z"/><path d="M197.65,55.19a9.23,9.23,0,1,1-9.21,9.23A9.22,9.22,0,0,1,197.65,55.19Z"/><path d="M462.66,185.14a6.45,6.45,0,1,0,6.45,6.45A6.46,6.46,0,0,0,462.66,185.14Z"/><ellipse cx="244.6" cy="191.59" rx="6.44" ry="6.45"/><path d="M439.95,240.66a12,12,0,1,0,12,12A12.06,12.06,0,0,0,439.95,240.66Z"/><path d="M267.31,240.65a12.05,12.05,0,1,1-12,12.05A12.06,12.06,0,0,1,267.31,240.65Z"/><path d="M445.27,69.66a7,7,0,1,0,7,7A7,7,0,0,0,445.27,69.66Z"/><path d="M262,69.66a7,7,0,1,1-7,7A7,7,0,0,1,262,69.66Z"/><path d="M409.51,93.18a4.25,4.25,0,1,0,4.27,4.25A4.25,4.25,0,0,0,409.51,93.18Z"/><path d="M297.75,93.18a4.25,4.25,0,1,1-4.25,4.25A4.24,4.24,0,0,1,297.75,93.18Z"/><path d="M396.1,107.78a3.23,3.23,0,1,0,3.25,3.23A3.23,3.23,0,0,0,396.1,107.78Z"/><path d="M311.16,107.78a3.23,3.23,0,1,1-3.23,3.23A3.23,3.23,0,0,1,311.16,107.78Z"/><path d="M21.41,215.19a4,4,0,1,1-4,4A4,4,0,0,1,21.41,215.19Z"/><path d="M672.11,247.6a3.86,3.86,0,1,0,3.9,3.87A3.87,3.87,0,0,0,672.11,247.6Z"/><path d="M35.14,247.6a3.86,3.86,0,1,1-3.86,3.87A3.87,3.87,0,0,1,35.14,247.6Z"/><path d="M657.85,196.86a3.69,3.69,0,1,0,3.73,3.69A3.7,3.7,0,0,0,657.85,196.86Z"/><path d="M49.4,196.86a3.69,3.69,0,1,1-3.68,3.69A3.7,3.7,0,0,1,49.4,196.86Z"/><path d="M676.86,225.48a3.92,3.92,0,1,0,4,3.92A3.92,3.92,0,0,0,676.86,225.48Z"/><path d="M30.39,225.48a3.92,3.92,0,1,1-3.91,3.92A3.93,3.93,0,0,1,30.39,225.48Z"/><path d="M610.64,178.27a10.26,10.26,0,1,0,10.23,10.25A10.27,10.27,0,0,0,610.64,178.27Z"/><path d="M96.63,178.27a10.26,10.26,0,1,1-10.24,10.25A10.25,10.25,0,0,1,96.63,178.27Z"/><path d="M587.3,196.18a9.32,9.32,0,1,0,9.31,9.32A9.34,9.34,0,0,0,587.3,196.18Z"/><path d="M120,196.18a9.32,9.32,0,1,1-9.31,9.32A9.32,9.32,0,0,1,120,196.18Z"/><path d="M564.16,217.67a4.81,4.81,0,1,0,4.8,4.8A4.82,4.82,0,0,0,564.16,217.67Z"/><path d="M143.1,217.67a4.81,4.81,0,1,1-4.81,4.81A4.81,4.81,0,0,1,143.1,217.67Z"/><path d="M622,255.64a10.71,10.71,0,1,0,10.69,10.71A10.73,10.73,0,0,0,622,255.64Z"/><path d="M85.26,255.64a10.71,10.71,0,1,1-10.69,10.71A10.71,10.71,0,0,1,85.26,255.64Z"/><circle cx="219.39" cy="327.01" r="3.49"/><path d="M487.91,153.78a3.49,3.49,0,1,0,3.49,3.49A3.51,3.51,0,0,0,487.91,153.78Z"/><circle cx="219.39" cy="157.27" r="3.49"/><path d="M477.92,143.86a3.23,3.23,0,1,0,3.23,3.23A3.24,3.24,0,0,0,477.92,143.86Z"/><circle cx="229.37" cy="147.09" r="3.23"/><path d="M473.4,231.21a5.13,5.13,0,1,0,5.15,5.12A5.1,5.1,0,0,0,473.4,231.21Z"/><path d="M233.85,231.21a5.13,5.13,0,1,1-5.13,5.11A5.13,5.13,0,0,1,233.85,231.21Z"/><path d="M496.65,256.52a6.13,6.13,0,1,0,6.14,6.12A6.1,6.1,0,0,0,496.65,256.52Z"/><path d="M210.61,256.52a6.13,6.13,0,1,1-6.12,6.12A6.13,6.13,0,0,1,210.61,256.52Z"/><path d="M150.94,245.18a9.62,9.62,0,1,1-9.66,9.66A9.63,9.63,0,0,1,150.94,245.18Z"/><path d="M242.77,313.56a2.62,2.62,0,1,1-2.61,2.61A2.62,2.62,0,0,1,242.77,313.56Z"/><path d="M177.89,208.34a2.62,2.62,0,1,1-2.64,2.61A2.62,2.62,0,0,1,177.89,208.34Z"/><path d="M543.27,140.24a2.83,2.83,0,1,0,2.82,2.82A2.83,2.83,0,0,0,543.27,140.24Z"/><path d="M164,140.24a2.83,2.83,0,1,1-2.84,2.82A2.82,2.82,0,0,1,164,140.24Z"/><path d="M565.6,31.25a3.18,3.18,0,1,0,3.18,3.17A3.19,3.19,0,0,0,565.6,31.25Z"/><path d="M139,31.25a3.18,3.18,0,1,1-3.2,3.17A3.17,3.17,0,0,1,139,31.25Z"/><path d="M231,279.3a2.63,2.63,0,1,1-2.61,2.64A2.63,2.63,0,0,1,231,279.3Z"/><path d="M189.73,230.39a2.63,2.63,0,1,1-2.61,2.62A2.62,2.62,0,0,1,189.73,230.39Z"/><path d="M314.15,255.28a3.5,3.5,0,1,1,0,7,3.5,3.5,0,0,1,0-7Z"/><path d="M408.9,262.37a4.9,4.9,0,1,0,4.88,4.91A4.89,4.89,0,0,0,408.9,262.37Z"/><path d="M298.38,262.37a4.89,4.89,0,1,1,0,9.79,4.89,4.89,0,0,1,0-9.79Z"/><path d="M393.13,0a3.5,3.5,0,1,0,3.49,3.51A3.49,3.49,0,0,0,393.13,0Z"/><path d="M314.15,0a3.5,3.5,0,1,1,0,7,3.5,3.5,0,0,1,0-7Z"/><path d="M655.35,92.21a16.89,16.89,0,1,0,16.83,16.85A16.91,16.91,0,0,0,655.35,92.21Z"/><path d="M52,92.26A16.84,16.84,0,1,1,35.08,109,16.76,16.76,0,0,1,52,92.26Z"/><path d="M180,323.46a4.38,4.38,0,1,1-4.4,4.38A4.4,4.4,0,0,1,180,323.46Z"/><circle cx="272.19" cy="308.9" r="8.01"/><path d="M115.19,283A28.87,28.87,0,1,1,86.33,311.8,28.87,28.87,0,0,1,115.19,283Z"/><path d="M514.56,266.87a19.49,19.49,0,1,0,19.51,19.47A19.48,19.48,0,0,0,514.56,266.87Z"/><path d="M192.69,266.88a19.48,19.48,0,1,1-19.47,19.46A19.48,19.48,0,0,1,192.69,266.88Z"/><path d="M487.61,196.7a9.4,9.4,0,1,0,9.44,9.42A9.42,9.42,0,0,0,487.61,196.7Z"/><path d="M219.63,196.7a9.4,9.4,0,1,1-9.39,9.41A9.42,9.42,0,0,1,219.63,196.7Z"/><path d="M406.71,205.83a14.44,14.44,0,1,0,14.44,14.44A14.43,14.43,0,0,0,406.71,205.83Z"/><path d="M300.58,205.83a14.44,14.44,0,1,1-14.44,14.43A14.43,14.43,0,0,1,300.58,205.83Z"/><path d="M333.69,247.33a3.5,3.5,0,0,1,0,7,3.5,3.5,0,1,1,0-7Z"/><path d="M29.53,297.22a17.3,17.3,0,1,1-24.46,0A17.32,17.32,0,0,1,29.53,297.22Z"/><path d="M702.22,321.69a17.3,17.3,0,1,1,0-24.46A17.33,17.33,0,0,1,702.22,321.69Z"/><path d="M369.62,279.29a16,16,0,1,1-16-16A16,16,0,0,1,369.62,279.29Z"/><circle cx="353.64" cy="245.74" r="7.99"/><circle cx="353.64" cy="50.15" r="9.62"/><path d="M392.63,169.34a39,39,0,1,1-39-39A39,39,0,0,1,392.63,169.34Z"/></g></g></svg>