<svg xmlns="http://www.w3.org/2000/svg" viewBox="0 0 52.11 76.01">
  <defs>
    <style>
      .cls-1 {
        fill: #fff;
      }
    </style>
  </defs>
  <title>corwin-icon</title>
  <g id="Layer_2" data-name="Layer 2">
    <g id="Layer_2-2" data-name="Layer 2">
      <g>
        <path class="cls-1" d="M25,37.82a13.5,13.5,0,0,1,1.39-6A22.28,22.28,0,1,0,44.23,50.13,13.54,13.54,0,0,1,25,37.82"/>
        <path class="cls-1" d="M52.11,37.82a13.56,13.56,0,0,0-25.74-6A22.27,22.27,0,0,1,44.23,50.13a13.55,13.55,0,0,0,7.88-12.3"/>
        <path class="cls-1" d="M23.34,18.24a10,10,0,1,1-10-10,10,10,0,0,1,10,10"/>
        <path class="cls-1" d="M31.19,4.86A4.86,4.86,0,1,1,26.32,0a4.86,4.86,0,0,1,4.86,4.86"/>
      </g>
    </g>
  </g>
</svg>
