<svg xmlns="http://www.w3.org/2000/svg" viewBox="0 0 264.6 120.7"><defs><style>.cls-1{fill:#fff;}</style></defs><title>corwin-logo-white</title><g id="Layer_2" data-name="Layer 2"><g id="Layer_2-2" data-name="Layer 2"><path class="cls-1" d="M227.63,66.63a3.56,3.56,0,1,1,3.56-3.56,3.53,3.53,0,0,1-3.56,3.56"/><path class="cls-1" d="M227.63,106.42a3,3,0,0,1-3-3V74.36a3,3,0,0,1,5.92,0v29.1a3,3,0,0,1-3,3"/><path class="cls-1" d="M100.5,106.63h-.24A11.39,11.39,0,0,1,88.85,95.28V82.66a11.44,11.44,0,0,1,11.41-11.41h.24a11.38,11.38,0,0,1,10,5.92A3,3,0,1,1,105.27,80a5.44,5.44,0,0,0-4.77-2.84h-.24a5.46,5.46,0,0,0-5.44,5.49V95.28a5.45,5.45,0,0,0,5.44,5.43h.24a5.38,5.38,0,0,0,4.77-2.9,3,3,0,1,1,5.26,2.84,11.42,11.42,0,0,1-10,6"/><path class="cls-1" d="M128.11,106.63h-.24a11.34,11.34,0,0,1-11.35-11.35V82.66a11.39,11.39,0,0,1,11.35-11.41h.24a11.39,11.39,0,0,1,11.35,11.41V95.28a11.34,11.34,0,0,1-11.35,11.35m5.43-24a5.46,5.46,0,0,0-5.43-5.49h-.24a5.46,5.46,0,0,0-5.44,5.49V95.28a5.45,5.45,0,0,0,5.44,5.43h.24a5.45,5.45,0,0,0,5.43-5.43Z"/><path class="cls-1" d="M164.12,78.13l-1-.36a6.67,6.67,0,0,0-6.1.85A6.58,6.58,0,0,0,154.22,84v19.44a3,3,0,0,1-6,0V84a12.57,12.57,0,0,1,16.85-11.84l1,.36a2.92,2.92,0,0,1,1.81,3.75,3,3,0,0,1-3.8,1.81"/><path class="cls-1" d="M261.58,106.33a3,3,0,0,1-3-3V82.66a5.46,5.46,0,0,0-5.44-5.49h-.24a5.5,5.5,0,0,0-5.44,5.49v20.65a3,3,0,1,1-5.92,0V82.66a11.39,11.39,0,0,1,11.35-11.41h.24A11.44,11.44,0,0,1,264.6,82.66v20.65a3,3,0,0,1-3,3"/><path class="cls-1" d="M196.73,74.45a2.93,2.93,0,1,0-5.86,0V95.1a5.5,5.5,0,0,1-5.48,5.49h-.24a5.5,5.5,0,0,1-5.44-5.49V74.45a3,3,0,1,0-5.92,0V95.1a11.39,11.39,0,0,0,11.35,11.41h.24a11.28,11.28,0,0,0,8.41-3.77,11.21,11.21,0,0,0,8.39,3.77h.24A11.44,11.44,0,0,0,213.83,95.1V74.45a3,3,0,1,0-6,0V95.1a5.46,5.46,0,0,1-5.44,5.49h-.24a5.51,5.51,0,0,1-5.45-5.49Z"/><path class="cls-1" d="M39.68,60.06a21.44,21.44,0,0,1,2.21-9.46,35.38,35.38,0,1,0,28.35,29A21.5,21.5,0,0,1,39.68,60.06"/><path class="cls-1" d="M82.75,60.06a21.52,21.52,0,0,0-40.87-9.46,35.37,35.37,0,0,1,28.35,29A21.52,21.52,0,0,0,82.75,60.06"/><path class="cls-1" d="M37.06,29A15.85,15.85,0,1,1,21.21,13.12,15.85,15.85,0,0,1,37.06,29"/><path class="cls-1" d="M49.52,7.72A7.72,7.72,0,1,1,41.8,0a7.72,7.72,0,0,1,7.72,7.72"/></g></g></svg>