<?xml version="1.0" encoding="utf-8"?>
<!-- Generator: Adobe Illustrator 21.1.0, SVG Export Plug-In . SVG Version: 6.00 Build 0)  -->
<svg version="1.1" id="Layer_1" xmlns="http://www.w3.org/2000/svg" xmlns:xlink="http://www.w3.org/1999/xlink" x="0px" y="0px"
	 viewBox="0 0 52.1 76" style="enable-background:new 0 0 52.1 76;" xml:space="preserve">
<style type="text/css">
	.st0{fill:#FFFFFF;}
	.st1{fill:#BDD431;}
	.st2{fill:#EE8322;}
</style>
<title>corwin-icon</title>
<g id="Layer_2">
	<g id="Layer_2-2">
		<g>
			<path class="st0" d="M25,37.8c0-2.1,0.5-4.1,1.4-6c-12.1-2.3-23.7,5.6-26,17.7s5.6,23.7,17.7,26s23.7-5.6,26-17.7
				c0.5-2.6,0.5-5.2,0.1-7.7c-6.8,3.1-14.8,0.2-18-6.6C25.4,41.7,25,39.8,25,37.8"/>
			<path class="st1" d="M52.1,37.8c0-7.5-6-13.6-13.5-13.6c-5.2,0-9.9,2.9-12.2,7.6c9.2,1.7,16.4,9.1,17.9,18.3
				C49,47.9,52.1,43.1,52.1,37.8"/>
			<path class="st2" d="M23.3,18.2c0,5.5-4.5,10-10,10s-10-4.5-10-10s4.5-10,10-10S23.3,12.7,23.3,18.2"/>
			<path class="st0" d="M31.2,4.9c0,2.7-2.2,4.9-4.9,4.9s-4.9-2.2-4.9-4.9c0-2.7,2.2-4.9,4.9-4.9C29,0,31.2,2.2,31.2,4.9L31.2,4.9"
				/>
		</g>
	</g>
</g>
</svg>
