<svg xmlns="http://www.w3.org/2000/svg" viewBox="0 0 313.83 301.46"><defs><style>.cls-1{fill:#231f20;}.cls-2{fill:#006241;}</style></defs><title>sbux-logo</title><g id="Layer_2" data-name="Layer 2"><g id="SBUX_DS" data-name="SBUX DS"><path class="cls-1" d="M62.76,274.07H80.91v5.43H68.65v5H80.23v5.43H68.65v5.43H81.59v5.43H62.76Z"/><path class="cls-1" d="M89.32,274.07h8l11.36,18.56h.08V274.07h5.89v26.71h-7.7l-11.66-19H95.2v19H89.32Z"/><path class="cls-1" d="M123.3,274.07h18.15v5.43H129.19v5h11.58v5.43H129.19v5.43h12.94v5.43H123.3Z"/><path class="cls-1" d="M149.86,274.07H160.2c5.47,0,10.08,1.89,10.08,8.11,0,3.74-2,6.64-5.77,7.32l6.79,11.28h-7.06l-5.58-10.68h-2.91v10.68h-5.89Zm5.89,11.06h3.47c2.15,0,4.94-.08,4.94-3,0-2.68-2.42-3.09-4.56-3.09h-3.85Z"/><path class="cls-1" d="M201.51,298.89a24,24,0,0,1-11.21,2.57c-8.34,0-14.42-5.48-14.42-14s6.08-14,14.42-14c4.22,0,8,.94,10.64,3.43l-4.15,4.53a8.2,8.2,0,0,0-6.49-2.53c-5,0-8.3,3.63-8.3,8.61s3.29,8.6,8.3,8.6a11.48,11.48,0,0,0,5.54-1.32v-4.34h-4.79v-5.43h10.45Z"/><path class="cls-1" d="M216.26,289.38l-10-15.32h7.32l5.66,10,6-10h7l-10,15.32v11.4h-5.89Z"/><path class="cls-1" d="M309.59,222.19a4.24,4.24,0,1,1-4.24,4.24A4.25,4.25,0,0,1,309.59,222.19Zm0,7.87a3.63,3.63,0,1,0-3.62-3.62A3.62,3.62,0,0,0,309.59,230.06Zm-.92-1.2H308V224h1.88c1.11,0,1.54.48,1.54,1.36a1.32,1.32,0,0,1-1.23,1.39l1.46,2.14H311l-1.46-2.14h-.88Zm0-2.69h.79c.67,0,1.4,0,1.4-.84,0-.63-.57-.81-1.09-.81h-1.09Z"/><path class="cls-1" d="M195.13,232.94a7.48,7.48,0,0,0-5.61-2.68c-2.19,0-4.26,1.28-4.26,4.45,0,2.68,1.83,3.84,5.3,5.6,4,1.95,9.14,5.05,9.14,12.55,0,9.32-6.33,14-13.4,14A17.54,17.54,0,0,1,174,262l5-7.31a9.92,9.92,0,0,0,6.95,3.23,4.08,4.08,0,0,0,4.2-4.39c0-2.8-2-4.2-5.73-6-4.69-2.31-8.59-5.24-8.59-12.43,0-9.56,7-13.64,13.28-13.64a14.74,14.74,0,0,1,11,4.32Z"/><path class="cls-1" d="M225.71,265.72v-18H215.66v18H206V222.59h9.69V239h10.05V222.59h9.68v43.13Z"/><path class="cls-1" d="M258.48,266.87c-10.23,0-16.57-9.14-16.57-22.84s6.21-22.6,16.57-22.6,16.57,9,16.57,22.6S268.72,266.87,258.48,266.87Zm0-36c-4.45,0-6.58,5.66-6.58,13.16s2.13,13.28,6.58,13.28,6.58-5.79,6.58-13.28S262.87,230.87,258.48,230.87Z"/><path class="cls-1" d="M293.33,230.87v34.84h-9.56V230.87h-7.92v-8.29h25.4v8.29Z"/><path class="cls-1" d="M9.87,265.72H0V222.59H9.93c10.17,0,16.14,7.68,16.14,21.63S20,265.72,9.87,265.72Zm0-38.32H5.42v33.5H9.87c6.09,0,10.72-5.48,10.72-16.69C20.59,232.82,16,227.4,9.87,227.4Z"/><path class="cls-1" d="M45.69,266.75c-9.26,0-14.8-9.14-14.8-22.66s5.36-22.54,14.8-22.54c9.2,0,14.74,9,14.74,22.54S54.89,266.75,45.69,266.75Zm0-40.27c-6,0-9,7.8-9,17.61s3,17.61,9,17.61,9-7.8,9-17.61S51.54,226.49,45.69,226.49Z"/><path class="cls-1" d="M79,266.75c-9.5,0-12.73-7.13-12.73-15.84V222.59H71.7v27.78c0,5.79,1.52,11.33,7.37,11.33s7.31-5.54,7.31-11.33V222.59h5.48v28.32C91.86,259.62,88.51,266.75,79,266.75Z"/><path class="cls-1" d="M115.81,243.06c3.17.61,7.37,3.84,7.37,10.78,0,8.89-6.52,11.88-11.7,11.88H99.85V222.59H110.2c4.93,0,11.51,2.13,11.51,10.66,0,5.61-2.86,8.53-5.91,9.69Zm-6.21-15.84H105v13.89h4.69c3.29,0,6.88-1.95,6.88-7S113.13,227.22,109.59,227.22Zm.49,18.21H105v15.66h5.3c4.08,0,7.43-2.32,7.43-7.62C117.75,247.57,113.61,245.43,110.08,245.43Z"/><path class="cls-1" d="M129.27,265.72V222.59h5.48v38h12.18v5.12Z"/><path class="cls-1" d="M151.51,265.72V222.59h18.15v4.88H156.81V241h12v4.57h-12v15.17h13.46v4.93Z"/><path class="cls-1" d="M176.34,206.32c0,4.66-2.59,7.16-7.46,7.16s-7.46-2.56-7.46-7.11v-8.25h5.36v8c0,2.21.61,3.19,2.05,3.19s2.14-.89,2.14-3.42v-7.76h5.36Z"/><polygon class="cls-1" points="99.46 201.93 99.46 213.17 94.04 213.17 94.04 201.93 89.5 201.93 89.5 198.11 103.99 198.11 103.99 201.93 99.46 201.93"/><path class="cls-1" d="M113.11,201.54l-1.33,5.16h2.7Zm3.48,11.62-.9-2.76H110.6l-1,2.76h-5.4l5.48-15.05h6.86L122,213.17Z"/><path class="cls-1" d="M193.73,212l-1.62-3.9a5.38,5.38,0,0,1-3.51,1.36,3.62,3.62,0,0,1-3.54-3.88c0-2.16,1.25-4,3.46-4a5.88,5.88,0,0,1,3.59,1.47l1.6-3.81a12.59,12.59,0,0,0-6.05-1.45c-4.55,0-8,3.12-8,7.72,0,4.86,3.36,7.94,8.16,7.94A10.94,10.94,0,0,0,193.73,212Z"/><polygon class="cls-1" points="205.9 213.17 202.51 207.68 202.51 213.17 197.25 213.17 197.25 198.11 202.51 198.11 202.51 203.63 205.69 198.11 211.57 198.11 206.63 205.53 212.2 213.17 205.9 213.17"/><path class="cls-1" d="M80.45,213.47c3.41,0,6.95-1.22,6.95-5.07,0-3.47-2.95-4.42-5.25-4.91-1.74-.37-2.57-.55-2.57-1.24,0-.92,1.17-1,1.8-1a8.36,8.36,0,0,1,4.27,1.4l1.4-3.43a16.35,16.35,0,0,0-6.14-1.41c-3.54,0-6.31,1.71-6.31,5.15,0,2.82,2.14,3.9,4.5,4.49,1.64.4,2.68.52,2.68,1.33s-.8,1-1.58,1a7,7,0,0,1-4.37-1.62l-1.7,3.32A11.81,11.81,0,0,0,80.45,213.47Z"/><path class="cls-1" d="M220.17,213.47c3.42,0,7-1.22,7-5.07,0-3.47-3-4.42-5.25-4.91-1.74-.37-2.57-.55-2.57-1.24,0-.92,1.17-1,1.79-1a8.36,8.36,0,0,1,4.27,1.4l1.4-3.43a16.34,16.34,0,0,0-6.14-1.41c-3.54,0-6.31,1.71-6.31,5.15,0,2.82,2.14,3.9,4.5,4.49,1.63.4,2.68.52,2.68,1.33s-.81,1-1.57,1a7,7,0,0,1-4.38-1.62l-1.7,3.32A11.8,11.8,0,0,0,220.17,213.47Z"/><path class="cls-1" d="M136.27,207.54a4.53,4.53,0,0,0,2.85-4.27c0-3.55-2.43-5.16-5.88-5.16h-8.13v15.05h5.22V208.7h1.32l2.71,4.47H140Zm-2.44-4.24a1.48,1.48,0,0,1-1.65,1.56h-1.86v-3.15h1.87a1.44,1.44,0,0,1,1.64,1.54Z"/><path class="cls-1" d="M154.56,205.48c2-.42,2.92-1.52,2.92-3.36,0-2.56-1.92-4-5.3-4H143.6v15.05h8.24c4,0,6-1.41,6-4.25A3.27,3.27,0,0,0,154.56,205.48Zm-5.8-4.11h1.89c1,0,1.65.43,1.65,1.31v0c0,.84-.63,1.33-1.66,1.33h-1.88Zm3.62,7.13c0,.88-.64,1.4-1.71,1.4h-1.91v-2.82h1.94c1,0,1.68.45,1.68,1.38Z"/><path class="cls-2" d="M208.67,162.32h-1.81v-1h4.77v1h-1.81v5.05h-1.14Zm4.11-1h1.74l1.62,4.62h0l1.62-4.62h1.74v6H218.4v-5h0l-1.75,5h-.92l-1.75-5h0v5h-1.14Z"/><path class="cls-2" d="M159.31,37.36a50.68,50.68,0,0,0-17.37,0c-.44.08-.6-.35-.27-.59l9-6.81,9,6.81C159.92,37,159.75,37.44,159.31,37.36Zm-15,42.78a1,1,0,0,0-.58.57c1.81,1.39,3.06,4.56,6.84,4.56s5-3.17,6.85-4.56a1,1,0,0,0-.58-.57,35.2,35.2,0,0,1-12.54,0Zm6.27-5.33c-1,0-1.28-.4-2-.4a3.59,3.59,0,0,0-2.3,1,1.12,1.12,0,0,0,.29.68c1.53.23,2.23,1.09,4,1.09s2.47-.85,4-1.09a1.11,1.11,0,0,0,.29-.68,3.59,3.59,0,0,0-2.3-1C151.9,74.4,151.67,74.8,150.62,74.8Zm86.27,16.34q-.16,3.09-.55,6.13c-9.78,1.62-13.27-7.09-23.29-6.66a63.44,63.44,0,0,1,1.46,6.5c8.26,0,11.6,7.72,20.78,6.58-.48,2.37-1.06,4.69-1.73,7-7.27.72-9.83-6.5-18.24-6.3q.1,1.8.1,3.62c0,.68,0,1.35,0,2,7.17-.09,9.5,6.55,16.34,6.23q-1.28,3.49-2.86,6.82c-4.91-.27-6.6-6.56-14.07-6.06-.23,1.61-.51,3.21-.85,4.79,6.49-.46,7.88,5.52,12.53,6-1.18,2.17-2.46,4.27-3.82,6.32-2.75-1.47-5.14-5.93-10.36-6.2.53-1.65,1-3.33,1.4-5A21.63,21.63,0,0,1,199.34,117c1.44-8.2-11.29-16.54-11.29-22.54,0-6.52,3.3-10.12,3.3-18.92,0-6.52-3.17-13.6-7.95-18.43a15.87,15.87,0,0,0-3-2.38c4.39,5.43,7.76,11.87,7.76,19.33,0,8.27-3.85,12.64-3.85,20.29s11.18,14.25,11.18,22.12c0,3.11-1,6.12-4.25,12.07,5,5,11.55,7.75,15.77,7.75a2.42,2.42,0,0,0,2.59-1.49c.43-.93.82-1.87,1.21-2.81,4.54.18,6.62,4.3,9.13,6q-2.06,2.77-4.35,5.37c-1.69-1.87-3.95-5-7.26-5.88-.6,1.16-1.22,2.29-1.89,3.41,2.85.77,4.81,3.66,6.32,5.55q-2.46,2.53-5.09,4.86a16.68,16.68,0,0,0-4.75-5.07q-1.06,1.44-2.21,2.81a15,15,0,0,1,4,4.73q-3,2.46-6.33,4.65c-1.07-8.78-13.06-14.8-9.82-25a13.28,13.28,0,0,0-2.32,6.73c0,7.37,7.85,13.22,8.48,20.54-1.63,1-3.29,1.89-5,2.76-.28-8.05-8.6-16.86-8.6-23.47,0-7.37,9.66-14.78,9.66-23.49s-11.15-14.74-11.15-22.39,4.74-12,4.74-21.84a26.17,26.17,0,0,0-8.67-19.09,14.25,14.25,0,0,0-3-2c5,6,7.85,11.36,7.85,19.57,0,9.21-5.43,14.32-5.43,23.34s10.93,14,10.93,22.45S176,132,176,140.62c0,7.85,9,15.7,9.11,25q-2.94,1.28-6,2.35c1.14-9.43-9-19.14-9-26.83,0-8.4,10.56-15.62,10.56-24.69S170,103.2,170,93.9s6.59-14.45,6.59-24.72a25,25,0,0,0-9.73-19.68l-.37-.28c-.55-.4-1,.08-.61.57a26.4,26.4,0,0,1,6.28,17.91c0,9.4-7.57,17-7.57,26.15,0,10.74,10.16,13.81,10.16,22.63s-10.9,15.87-10.9,25.23c0,8.68,10.31,18.32,8.54,28.34-2.07.53-4.16,1-6.29,1.38,1.93-12.47-8.18-21.43-8.18-29.59,0-8.84,11.28-16.71,11.28-25.35,0-8.14-8.1-10.8-9.16-19.13a2,2,0,0,0-2.31-1.77c-1.65.3-3.76,1.38-7.07,1.38s-5.42-1.08-7.07-1.38a2,2,0,0,0-2.31,1.77c-1.06,8.33-9.16,11-9.16,19.13,0,8.64,11.29,16.51,11.29,25.35,0,8.16-10.12,17.12-8.18,29.59-2.13-.38-4.22-.84-6.29-1.37-1.77-10,8.54-19.66,8.54-28.34,0-9.36-10.89-16.41-10.89-25.23s10.16-11.89,10.16-22.63c0-9.12-7.56-16.75-7.56-26.15a26.38,26.38,0,0,1,6.28-17.91c.38-.48-.07-1-.61-.57l-.36.28a25,25,0,0,0-9.73,19.68c0,10.27,6.59,15.42,6.59,24.72s-10.74,13.52-10.74,22.58,10.56,16.29,10.56,24.69c0,7.69-10.1,17.4-9,26.83q-3.06-1.07-6-2.35c.14-9.32,9.11-17.18,9.11-25,0-8.64-10.18-15.73-10.18-24.14S126,103.05,126,94,120.6,79.9,120.6,70.69c0-8.2,2.87-13.61,7.84-19.57a14.27,14.27,0,0,0-3,2,26.18,26.18,0,0,0-8.67,19.09c0,9.79,4.74,14.19,4.74,21.84s-11.15,13.68-11.15,22.39,9.66,16.12,9.66,23.49c0,6.61-8.31,15.41-8.6,23.47-1.7-.87-3.36-1.78-5-2.76.63-7.32,8.48-13.17,8.48-20.54a13.25,13.25,0,0,0-2.32-6.73c3.23,10.18-8.75,16.19-9.82,25q-3.28-2.19-6.34-4.65a15,15,0,0,1,4-4.73q-1.15-1.38-2.22-2.81a16.66,16.66,0,0,0-4.75,5.07q-2.64-2.34-5.09-4.86c1.51-1.89,3.46-4.78,6.32-5.55-.65-1.11-1.29-2.25-1.88-3.41-3.32.87-5.58,4-7.26,5.88q-2.28-2.6-4.35-5.37c2.51-1.65,4.59-5.78,9.13-6,.38.94.78,1.88,1.2,2.81a2.42,2.42,0,0,0,2.59,1.49c4.21,0,10.75-2.73,15.77-7.75-3.26-5.95-4.25-9-4.25-12.07,0-7.87,11.18-14.48,11.18-22.12S113,82.35,113,74.08c0-7.46,3.37-13.9,7.76-19.33a16.14,16.14,0,0,0-3,2.38C113.06,62,109.9,69,109.9,75.56c0,8.79,3.29,12.4,3.29,18.92,0,6-12.71,14.35-11.28,22.54a21.63,21.63,0,0,1-14.37,5.85c.4,1.7.87,3.38,1.4,5-5.22.27-7.61,4.73-10.36,6.2-1.36-2-2.64-4.15-3.81-6.32,4.64-.48,6-6.46,12.53-6-.34-1.57-.63-3.17-.85-4.79-7.47-.5-9.16,5.79-14.08,6.06q-1.57-3.33-2.85-6.82c6.83.32,9.16-6.32,16.34-6.23,0-.67,0-1.35,0-2,0-1.22,0-2.43.11-3.62-8.41-.2-11,7-18.24,6.3q-1-3.43-1.73-7c9.19,1.14,12.52-6.59,20.79-6.58a64,64,0,0,1,1.45-6.5c-10-.44-13.51,8.27-23.29,6.66q-.37-3-.55-6.13c11.37,1.27,15.63-8.08,26-6.93A61.41,61.41,0,0,1,93.72,77c-13-2.28-17.38,8.56-29.46,6.9a86.4,86.4,0,0,1,172.73,0c-12.08,1.66-16.48-9.18-29.46-6.9a61.4,61.4,0,0,1,3.39,7.17C221.26,83.06,225.53,92.41,236.89,91.14ZM113.48,54.91a22.48,22.48,0,0,0-20.64,2.22,22.54,22.54,0,0,0-9.07-14.84A.78.78,0,0,0,82.5,43c1,12.93-6.56,24.16-15.86,34,9.58,2.88,17.73-9.45,30.16-5.15A65.05,65.05,0,0,1,113.48,54.91Zm37.14-7.82c-8,0-14.74,4.53-16.49,10.4-.14.45,0,.74.57.51a11.79,11.79,0,0,1,4.87-1,10,10,0,0,1,7.86,3.29,14,14,0,0,1,0,8.15c-1.34-.3-1.83-1.34-3.15-1.34s-2.34.93-4.57.93-2.49-1.05-4-1.05c-1.73,0-2,1.78-2,3.78,0,8.93,8.21,21.23,16.95,21.23s17-12.3,17-21.23c0-2-.42-3.72-2.22-4A5.46,5.46,0,0,1,161.58,68c-2.23,0-2.85-.93-4.17-.93-1.58,0-1.43,3.34-3.31,3.53a15.84,15.84,0,0,1-.27-10.34A10,10,0,0,1,161.69,57a11.74,11.74,0,0,1,4.86,1c.52.23.71-.06.57-.51C165.36,51.62,158.65,47.08,150.62,47.08ZM163.39,59.9a7.57,7.57,0,0,0-5.6,2.17,2.22,2.22,0,0,0,.07,1.5c3.49-1.2,6.57-1.24,8.05.42a2.68,2.68,0,0,0,1-2.12C167,60.71,165.77,59.9,163.39,59.9ZM135.34,64c1.68-1.69,5.23-1.61,8.91-.25.16-1.84-3.12-3.83-6.4-3.83-2.38,0-3.56.8-3.56,2A2.69,2.69,0,0,0,135.34,64Zm55.28-30.25A28.54,28.54,0,0,0,174.34,40a64,64,0,0,1,7.32-14.59c-8.05.86-14.8,3.81-19.72,8.85l-3.85-10.1,8.55-7.55-11.44-.8L150.62,5.15l-4.56,10.65-11.44.8,8.54,7.55-3.85,10.1c-4.93-5-11.66-8-19.73-8.85A64.29,64.29,0,0,1,126.92,40a28.58,28.58,0,0,0-16.29-6.25,76.6,76.6,0,0,1,9.66,15.69,1,1,0,0,0,1.54.51,64.94,64.94,0,0,1,57.59,0,1,1,0,0,0,1.54-.51A76.61,76.61,0,0,1,190.62,33.73Zm13.83,38.17c12.42-4.3,20.58,8,30.16,5.15-9.3-9.87-16.86-21.09-15.85-34a.78.78,0,0,0-1.27-.74,22.53,22.53,0,0,0-9.07,14.84,22.48,22.48,0,0,0-20.64-2.22A65.17,65.17,0,0,1,204.44,71.91Z"/></g></g></svg>