<svg xmlns="http://www.w3.org/2000/svg" viewBox="0 0 300 200"><defs><style>.cls-1{fill:#fff;}.cls-2{fill:#221f1f;}.cls-3{fill:#ee3f42;}.cls-4{fill:#faae32;}.cls-5{fill:#59595c;}</style></defs><title>gatorade-logo</title><g id="boundary"><rect class="cls-1" width="300" height="200"/></g><g id="Layer_1" data-name="Layer 1"><path class="cls-2" d="M125.64,147l20.5-51.67-11.77,4.51,19.28-29.34,48.91-16.23L189.44,70.06l16.42-5.74L125.64,147"/><polyline class="cls-3" points="155.24 72.66 191.67 60.58 178.42 76.52 192.77 71.58 134.38 131.75 151.01 89.87 141.54 93.48 155.24 72.66"/><path class="cls-2" d="M182.85,92.68,153,123.3h27.76v23.52c-6.37,2.69-10.54,3.67-17.15,3.67a45.21,45.21,0,0,1-28-9.31L117.8,158.93l9.88-25.46c-6-8.21-9.89-19.85-9.89-31.73,0-26,17.64-45.09,41.9-45.09a47,47,0,0,1,17,2.9L211,48.36,198.92,63.54l18.44-6.62-12,12.3-1.5,1.55h16.4v-55H194.33V23.9a95,95,0,0,0-34.41-6C108.22,17.94,71,54,71,104.44c0,49,35.78,83.06,87.23,83.06,24.26,0,46.06-6.62,64.93-19.6V92.68Z"/><polygon class="cls-4" points="138.18 122.2 184.45 74.45 171.44 78.87 184.68 62.9 155.23 72.66 145.24 87.87 152.95 84.96 138.18 122.2"/><path class="cls-5" d="M224.12,12.87h-1.06V12.5h2.52v.37h-1v2.85h-.41Z"/><path class="cls-5" d="M227.29,15.72l-.88-2.61v2.61H226V12.5h.59l.93,2.74.93-2.74H229v3.22h-.42V13.1l-.88,2.61Z"/></g></svg>