<svg xmlns="http://www.w3.org/2000/svg" width="317.22" height="158.17" viewBox="0 0 317.22 158.17">
  <defs>
    <style>
      .cls-1 {
        fill: #fff;
      }

      .cls-2 {
        fill: #231f20;
      }
    </style>
  </defs>
  <title>Asset 1</title>
  <g id="Layer_2" data-name="Layer 2">
    <g id="Layer_2-2" data-name="Layer 2">
      <g>
        <path class="cls-1" d="M292.22,78.75H292a24.72,24.72,0,0,0-11.69,2.93,16.3,16.3,0,0,0-32.34-2.5,15.68,15.68,0,0,0-2.54-.22A15.51,15.51,0,0,0,236,82.13a15.52,15.52,0,0,0-18.81,0,15.55,15.55,0,0,0-17-1.2l-.07,0L199,80.53a26.16,26.16,0,0,0-27.13,5.84A24.8,24.8,0,0,0,154,78.75h-.27a24.73,24.73,0,0,0-15.1,5.15,24.89,24.89,0,0,0-15.15-5.15h-.26a24.89,24.89,0,0,0-7,1c0-.33,0-.66,0-1A36.22,36.22,0,0,0,65.66,45.54c0-.38.06-.76.06-1.14a29.93,29.93,0,0,0-.26-3.75,20.91,20.91,0,1,0-26.83-26c-.93-.09-1.86-.14-2.81-.14A29.86,29.86,0,0,0,17.58,68a51.44,51.44,0,1,0,81.84,57.3,25,25,0,0,0,23.79,17.29h.26a24.93,24.93,0,0,0,15.16-5.14,24.77,24.77,0,0,0,15.1,5.14H154a24.76,24.76,0,0,0,14.53-4.72A15.68,15.68,0,0,0,195,129.21a24.94,24.94,0,0,0,22,13.28h.26a24.77,24.77,0,0,0,9.29-1.81,24.72,24.72,0,0,0,9.28,1.81h.27a24.88,24.88,0,0,0,15.88-5.7,15.59,15.59,0,0,0,21.42,2.41,15.52,15.52,0,0,0,18.68-.08,15.53,15.53,0,0,0,9.41,3.17,15.74,15.74,0,0,0,15.72-15.72V103.74A25,25,0,0,0,292.22,78.75Z"/>
        <g>
          <path class="cls-2" d="M264,86a3.94,3.94,0,1,1,3.94-3.94A3.9,3.9,0,0,1,264,86"/>
          <path class="cls-2" d="M264,130a3.28,3.28,0,0,1-3.27-3.27V94.57a3.27,3.27,0,0,1,6.54,0v32.17A3.28,3.28,0,0,1,264,130"/>
          <path class="cls-2" d="M123.46,130.24h-.26a12.59,12.59,0,0,1-12.62-12.55V103.74A12.65,12.65,0,0,1,123.2,91.13h.26a12.58,12.58,0,0,1,11,6.54,3.27,3.27,0,1,1-5.74,3.14,6,6,0,0,0-5.27-3.14h-.26a6,6,0,0,0-6,6.07v13.95a6,6,0,0,0,6,6h.26a5.94,5.94,0,0,0,5.27-3.2,3.3,3.3,0,1,1,5.81,3.14,12.63,12.63,0,0,1-11.08,6.61"/>
          <path class="cls-2" d="M154,130.24h-.27a12.53,12.53,0,0,1-12.55-12.55V103.74a12.59,12.59,0,0,1,12.55-12.61H154a12.59,12.59,0,0,1,12.54,12.61v13.95A12.53,12.53,0,0,1,154,130.24m6-26.49a6,6,0,0,0-6-6.07h-.27a6,6,0,0,0-6,6.07v13.95a6,6,0,0,0,6,6H154a6,6,0,0,0,6-6Z"/>
          <path class="cls-2" d="M193.78,98.74l-1.13-.4a7.37,7.37,0,0,0-6.74.93,7.28,7.28,0,0,0-3.07,6v21.49a3.3,3.3,0,0,1-6.61,0V105.28A13.89,13.89,0,0,1,194.85,92.2l1.14.4a3.23,3.23,0,0,1,2,4.14,3.3,3.3,0,0,1-4.2,2"/>
          <path class="cls-2" d="M301.5,129.9a3.29,3.29,0,0,1-3.27-3.34V103.74a6,6,0,0,0-6-6.07H292a6.08,6.08,0,0,0-6,6.07v22.82a3.27,3.27,0,1,1-6.54,0V103.74A12.59,12.59,0,0,1,292,91.13h.26a12.65,12.65,0,0,1,12.62,12.61v22.82a3.31,3.31,0,0,1-3.34,3.34"/>
          <path class="cls-2" d="M229.82,94.67a3.24,3.24,0,1,0-6.48,0V117.5a6.08,6.08,0,0,1-6.06,6.07H217a6.08,6.08,0,0,1-6-6.07V94.67a3.27,3.27,0,1,0-6.54,0V117.5A12.59,12.59,0,0,0,217,130.11h.26a12.46,12.46,0,0,0,9.3-4.17,12.39,12.39,0,0,0,9.27,4.17h.27a12.64,12.64,0,0,0,12.61-12.61V94.67a3.3,3.3,0,1,0-6.61,0V117.5a6,6,0,0,1-6,6.07h-.27a6.09,6.09,0,0,1-6-6.07Z"/>
          <path class="cls-2" d="M56.23,78.77a23.7,23.7,0,0,1,2.44-10.45,39.1,39.1,0,1,0,31.33,32,23.77,23.77,0,0,1-33.77-21.6"/>
          <path class="cls-2" d="M103.85,78.77A23.79,23.79,0,0,0,58.68,68.32a39.1,39.1,0,0,1,31.33,32,23.79,23.79,0,0,0,13.84-21.6"/>
          <path class="cls-2" d="M53.34,44.4A17.52,17.52,0,1,1,35.82,26.88,17.52,17.52,0,0,1,53.34,44.4"/>
          <path class="cls-2" d="M67.12,20.92a8.53,8.53,0,1,1-8.54-8.53,8.54,8.54,0,0,1,8.54,8.53"/>
        </g>
      </g>
    </g>
  </g>
</svg>
