<svg xmlns="http://www.w3.org/2000/svg" viewBox="0 0 18 18"><defs><style>.cls-1{fill:#231f20;}</style></defs><title>Asset 5</title><g id="Layer_2" data-name="Layer 2"><g id="Layer_2-2" data-name="Layer 2"><path class="cls-1" d="M14.44,9A5.44,5.44,0,1,1,3.66,8H0v7.23A2.81,2.81,0,0,0,2.81,18H15.19A2.81,2.81,0,0,0,18,15.19V8H14.34A5.47,5.47,0,0,1,14.44,9Zm.75-9H2.81A2.81,2.81,0,0,0,0,2.81v3H4.56a5.44,5.44,0,0,1,8.89,0H18v-3A2.81,2.81,0,0,0,15.19,0Zm1.38,3.47a.5.5,0,0,1-.5.5H14.55a.5.5,0,0,1-.5-.5V2a.5.5,0,0,1,.5-.5h1.51a.5.5,0,0,1,.5.5ZM12.35,9A3.35,3.35,0,1,0,9,12.35,3.35,3.35,0,0,0,12.35,9Z"/></g></g></svg>