<svg id="Layer_1" data-name="Layer 1" xmlns="http://www.w3.org/2000/svg" viewBox="0 0 39.29 39.29"><defs><style>.cls-1{fill:#6a1b32;}</style></defs><title>kendalls-icon</title><g id="Layer_2" data-name="Layer 2"><g id="Layer_2-2" data-name="Layer 2-2"><path class="cls-1" d="M39.29,19.64A19.64,19.64,0,1,1,19.64,0,19.64,19.64,0,0,1,39.29,19.64h0M18.12,4.42c-1.11,3.19-3.35,9.74-14,15,1.59,1.44,4.15,4,5.26,5.11A34.27,34.27,0,0,0,19,8.73h.16c0,2.55.08,6.07-.16,8.62A15.3,15.3,0,0,1,16,25c1.44,2.71,3.2,5.58,3.2,11.17h1c0-5.58,1.8-8.45,3.19-11.18a15.18,15.18,0,0,1-3-7.66c-.24-2.56-.16-6.07-.16-8.62h.16A34.27,34.27,0,0,0,30,24.52c1.12-1.12,3.67-3.67,5.27-5.11-10.69-5.27-12.93-11.82-14-15Z"/></g></g></svg>