<svg xmlns="http://www.w3.org/2000/svg" viewBox="0 0 300 200"><defs><style>.cls-1{fill:#fff;}.cls-2,.cls-5{fill:#f9a350;}.cls-2{stroke:#f9a350;}.cls-2,.cls-4{stroke-width:0.53px;}.cls-3,.cls-4{fill:#231f20;}.cls-4{stroke:#231f20;}.cls-6{fill:#004712;}.cls-7{fill:#8dc63f;}.cls-8{fill:#ef3e42;}.cls-9{fill:none;stroke:#004712;stroke-linecap:round;stroke-linejoin:round;stroke-width:1.18px;}</style></defs><title>kickstart-logo</title><g id="boundary"><rect class="cls-1" width="300" height="200"/></g><g id="Layer_1" data-name="Layer 1"><path class="cls-2" d="M121.66,109.46c-2.86,0-2.86-1.06-2.86-2.09V96.22c0-1,0-1.8,2.86-1.8h13.93V87.15l-1.78-.09s-5.58-.26-13.81-.26h-.12c-5.71,0-9.54,3.05-10.05,7.86v14.28a8.64,8.64,0,0,0,2.65,5.54,10.58,10.58,0,0,0,7.42,2.6H120c6.54,0,12.6-.24,13.79-.3l1.82-.08v-7.24Z"/><polygon class="cls-2" points="167.62 86.85 157.09 86.85 147.62 97.92 145.08 97.92 145.08 86.85 136.35 86.85 136.35 87.01 136.35 94.28 136.35 109.32 136.35 116.56 136.35 116.76 145.08 116.76 145.08 105.61 147.85 105.61 156.97 116.76 167.53 116.76 155.25 101.71 167.62 86.85"/><path class="cls-2" d="M102.42,87l9-10.94H100.93l-18.43,22H80V87H71.23V116.9H80V105.75h2.77l9.13,11.15H109V87Zm-2.06,27.4L90.14,101.84l10.22-12.37Z"/><polygon class="cls-3" points="101.47 77.21 83.04 99.23 78.8 99.23 78.8 88.16 72.4 88.16 72.4 115.73 78.8 115.73 78.8 104.58 83.28 104.58 92.41 115.73 99.94 115.73 88.62 101.84 108.98 77.21 101.47 77.21"/><path class="cls-3" d="M121.66,110.63c-3.55,0-4-1.65-4-3.26V96.22c0-1.79.69-3,4-3h13l.07-5-1,0c-.05,0-5.54-.26-13.73-.26h-.11c-5.52,0-8.95,3-8.95,7.81v12a7.75,7.75,0,0,0,2.35,5.83,9.43,9.43,0,0,0,6.61,2.28H120c7.13,0,13.67-.29,13.74-.3l1,0-.07-4.94Z"/><polygon points="164.91 115.41 163.9 114.18 163.9 114.18 153.74 101.7 165.12 88.02 157.62 88.02 148.16 99.09 143.91 99.09 143.91 88.02 137.52 88.02 137.52 115.59 143.91 115.59 143.91 104.44 148.4 104.44 157.53 115.59 165.06 115.59 164.91 115.41 164.91 115.41"/><rect class="cls-3" x="101.57" y="88.16" width="6.35" height="27.58"/><polygon class="cls-3" points="164.91 115.41 163.9 114.18 163.9 114.18 153.74 101.7 165.12 88.02 157.62 88.02 148.16 99.09 143.91 99.09 143.91 88.02 137.52 88.02 137.52 115.59 143.91 115.59 143.91 104.44 148.4 104.44 157.53 115.59 165.06 115.59 164.91 115.41 164.91 115.41"/><path class="cls-4" d="M262.52,94.41h10.55V116.9h8.74V94.42h7.87L292.75,87H265.46Z"/><path class="cls-4" d="M262.44,105.92a7.69,7.69,0,0,0,4.1-7.24v-3a17.39,17.39,0,0,0-.27-2.31,8.19,8.19,0,0,0-5.19-5.6,14.22,14.22,0,0,0-4.84-.78H238.68v25l1.92,4.87h6.82v-9.5h6.11l5.81,9.5h9.73Zm-4.21-8.05c0,1.21,0,2-2.6,2h-8.2V94.42h8.2c2.6,0,2.6.63,2.6,1.87Z"/><path class="cls-4" d="M240.91,112.08c-2.26-5.76-8.81-22.46-9-23.06a3.07,3.07,0,0,0-3.26-2h-38l-3.36,7.43h11V116.9H207V94.42h9.65L208.94,114l-1.13,2.88h9.61l2.84-7.37h10.08l2.84,7.37h9.64L240.91,112ZM223,101.69l2.3-5.83,2.28,5.83Z"/><path class="cls-5" d="M230.77,89.43c-.38-1.06-1.08-1.27-2.15-1.27h-6.67c-1,0-1.81.22-2.12,1.29-.53,1.36-9.8,25-9.8,25l-.5,1.29h7.1l2.84-7.37h11.69l2.84,7.37h7.09l-.51-1.29Zm-1.49,13.43h-8l3.81-9.68h.42Z"/><path class="cls-5" d="M265.36,98.68v-3c0-4.77-3.33-7.52-9.14-7.52H239.85v27.58h6.4v-9.5h7.94l5.81,9.5h7l-6.25-10.35A6.51,6.51,0,0,0,265.36,98.68Zm-19.12-5.43h9.37c3.17,0,3.78,1.07,3.78,3v1.58c0,2-.63,3.19-3.78,3.19h-9.37Z"/><polygon class="cls-5" points="190.68 93.25 199.4 93.25 199.4 115.73 205.8 115.73 205.8 93.25 216.91 93.25 218.83 88.16 191.36 88.16 189.61 93.25 190.68 93.25"/><path class="cls-4" d="M191,87H177.22c-5.69,0-10.94,1-10.94,8.06v2.2c0,5.49,4.09,6.12,8,6.72,1.84.27,8.23,1.26,10.72,1.68l.35.07s0,0,0,.07V108a3.56,3.56,0,0,1-.09,1c-.07.07-.49.32-2.78.32H162.6l6,7.47,1.24,0c4.73.18,9.16.28,13.13.28h.22c5.09,0,10.93-1,10.93-8.47V105.1c0-5.23-3.55-6.51-7-7.08L179,96.71l-3.27-.53-.61-.11v-.66c0-.39,1.27-.86,2.29-1h11.1L191.84,87Z"/><path class="cls-5" d="M193,108.58V105.1c0-4.1-2.42-5.34-6-5.93l-11.4-1.83c-1.59-.27-1.59-.31-1.59-1v-.92c0-1.82,3.43-2.16,3.43-2.16h10.92L190,88.16h-12.8c-5.87,0-9.78,1-9.78,6.89v2.2c0,4.49,3.11,5,7,5.56,1.85.27,8.24,1.25,10.75,1.68,1.27.21,1.32.57,1.32,1.3V108c0,1.9-.18,2.49-4,2.49H165.11l4.23,5.15c2.42.1,8.11.28,13.66.28h.21C190.13,115.88,193,113.76,193,108.58Z"/><polygon class="cls-5" points="265.51 93.25 274.24 93.25 274.24 115.73 280.63 115.73 280.63 93.25 288.96 93.25 290.88 88.16 266.19 88.16 264.28 93.25 265.51 93.25"/><path class="cls-3" d="M283.65,116.92h-.35v-1.4h-.42v-.29h1.2v.29h-.42Zm2.16,0h-.33V115.6l-.4,1.32h-.18l-.41-1.32v1.32h-.28v-1.68h.49l.32,1,.31-1h.49Z"/><path class="cls-6" d="M10.1,121.42a101.19,101.19,0,0,0,6-12.23L7,112.73l.56-2.89c.39-.48,8.77-9.92,15.06-18.65l8.88-3.92.63-1.84,10.56-5-.79,2.3,11.48-5-.26.44A55.2,55.2,0,0,0,49.09,88L77.72,75.7l-1,2.81c-.1.13-7,8-20.08,25.09L32.83,114.06a7.16,7.16,0,0,1-1.4.45,4.37,4.37,0,0,1-1.39.05l-.21.19A14.15,14.15,0,0,1,26.12,117L9.55,124.28Z"/><path class="cls-6" d="M77.43,76l-.84,2.45s-6.84,7.78-20.05,25L32.77,113.9h0a6.69,6.69,0,0,1-1.34.43,4.11,4.11,0,0,1-.82.08,4.2,4.2,0,0,1-.6,0l-.27.25A14,14,0,0,1,26,116.85L9.77,124l.49-2.55a99.23,99.23,0,0,0,6.17-12.57l-9.19,3.58.5-2.59c.89-1,8.94-10.13,15-18.58l8.87-3.9.63-1.84,10.13-4.78-.79,2.28L53,78.12a55.19,55.19,0,0,0-4.18,10.21L77.43,76m.57-.61-.7.3-27.94,12a54.4,54.4,0,0,1,3.93-9.44l.51-.88-.94.41L42.21,82.45l.54-1.56.26-.75-.72.34L32.15,85.25l-.13.06,0,.13-.59,1.7L22.65,91l-.08,0-.05.07c-6.27,8.7-14.66,18.16-15,18.55l-.06.07,0,.09-.5,2.59-.12.6.57-.22,8.46-3.29A99.08,99.08,0,0,1,10,121.28l0,0v.06l-.49,2.55-.12.63.59-.26,16.27-7.15a14.3,14.3,0,0,0,3.76-2.28l.16-.15.48,0a4.45,4.45,0,0,0,.88-.09,6.84,6.84,0,0,0,1.36-.43h0l.06,0L56.68,103.8l.08,0,.05-.07c13.05-17.05,20-24.94,20-25l0-.05,0-.06.84-2.45.25-.72Z"/><path class="cls-7" d="M8.48,110.14l9.84-3.77s-4.86,11.51-7.35,15.3l14.64-6.43a12.81,12.81,0,0,0,3.38-2,7.85,7.85,0,0,0,.64-.63l.06,0a3.14,3.14,0,0,0,1.5.07,5.88,5.88,0,0,0,1.13-.37h0L55.82,102S68,85.65,75.75,77.29L47.56,89.53c2.25-7.43,3.83-10.07,3.83-10.07l-11,4.72L41.18,82l-8,3.77-.64,1.86-9,4a186.76,186.76,0,0,1-15,18.54"/><path class="cls-1" d="M24.23,92l9.18-4,.65-1.87,5.65-2.67L39,85.52l10.67-4.61a95,95,0,0,0-3.38,9.87L72.56,79.35s-4.22,3.75-17.22,21.55L32.09,111.09a2.85,2.85,0,0,1-2,.27h0a1.52,1.52,0,0,1-.52-.31,6.63,6.63,0,0,1-1,1.13A12,12,0,0,1,25.35,114l-12,5.29c2.56-4.1,6.69-14.93,6.69-14.93l-7.94,3.09C15.21,104.35,24.23,92,24.23,92"/><path class="cls-6" d="M34.93,86.72l2.85-1.34-.69,2,2.23-1-.62,1.81-2.23,1-1.68,4.87c-.2.59-.2.72.3.5l1-.43a4,4,0,0,0,1.13-.8l-.93,2.24-3.52,1.54c-.89.39-1.46.14-.67-2.16l1.56-4.53-.87.38L33.41,89l.87-.38Z"/><path class="cls-6" d="M43.12,84.73l-.25.93h0A2.94,2.94,0,0,1,44,84.36l2.27-1c1.32-.58,1.42.48.71,2.54l-1.29,3.75a4.85,4.85,0,0,0-.42,2l-3.42,1.5a9.45,9.45,0,0,0,1-2.25l1.56-4.54c.2-.57.14-.71-.2-.56l-1,.45c-.35.15-.53.4-.73,1l-1.56,4.54a4.85,4.85,0,0,0-.42,2L37,95.23a9.6,9.6,0,0,0,1-2.26l1.72-5a4.84,4.84,0,0,0,.42-2Z"/><path class="cls-6" d="M19.93,101.08c-.34.47-.78,1.13-1,1.46a3,3,0,0,0-.35.78L16,104.48a29.44,29.44,0,0,0,2.35-2.88l6.41-8.79,2.9-1.27-2.46,7h0l4.64-8,2.94-1.28-2.4,6.92a7.94,7.94,0,0,0-.59,2.23l-3.3,1.45c.16-.29.29-.5.44-.81a9.54,9.54,0,0,0,.46-1.19l1.35-4h0l-3.9,6.71L21.59,102l2-5.89h0Z"/><path class="cls-8" d="M20.9,105.75c.77-1.75,1-2.56.83-3.09L30,99.09c2.4-1.05,2.69.11,1.29,3.95l-2,6c-.59,1.78-2,2.94-4.4,4l-8.78,3.84a24.52,24.52,0,0,0,1.54-3.4Zm1.2,5.88,2.25-1c.71-.31.91-.63,1.37-1.89l1.69-4.62c.46-1.27.46-1.49-.25-1.18l-1.88.78Z"/><path class="cls-8" d="M35.27,103.93l-.44,1.28c-.33,1-.2,1.28.47,1l4-1.75A6.26,6.26,0,0,0,41.4,103L40,106.44l-8.3,3.63c-1.87.82-2-.23-1-3.09l1.87-5.43c1-2.86,2-4.38,3.83-5.19l6.34-2.78c1.87-.82,2,.24,1,3.09l-1.45,4.2Zm3.84-4,.64-1.87c.27-.79.24-1-.22-.84L37.82,98c-.46.2-.71.59-1,1.37l-.64,1.87Z"/><path class="cls-8" d="M61.78,87.7C62.3,87,63,86,63.27,85.52a4.56,4.56,0,0,0,.52-1.17l4.14-1.81a44.16,44.16,0,0,0-3.62,4.33L54.78,99.94l-5.19,2.27,3.66-10.47,0,0-7.54,12.17-4.36,1.91,3.56-10.28a11.85,11.85,0,0,0,.88-3.31l4.91-2.15c-.24.43-.43.73-.66,1.2a13.86,13.86,0,0,0-.68,1.76L47.3,99h0l6.31-10.2,5.76-2.52-3,8.76,0,0Z"/><path class="cls-9" d="M60.15,102.12a1.19,1.19,0,1,1,1.19-1.19A1.15,1.15,0,0,1,60.15,102.12Zm0-2.1a.91.91,0,0,0,0,1.83h0a.92.92,0,0,0,0-1.83ZM60,101.57h-.27v-1.28h.48c.33,0,.53.09.53.38a.3.3,0,0,1-.31.34l.33.56h-.33l-.3-.54h-.13Zm.24-.76c.12,0,.2,0,.2-.17s-.14-.14-.25-.14h-.19v.31Z"/><path class="cls-1" d="M60.15,102.12a1.19,1.19,0,1,1,1.19-1.19A1.15,1.15,0,0,1,60.15,102.12Zm0-2.1a.91.91,0,0,0,0,1.83h0a.92.92,0,0,0,0-1.83ZM60,101.57h-.27v-1.28h.48c.33,0,.53.09.53.38a.3.3,0,0,1-.31.34l.33.56h-.33l-.3-.54h-.13Zm.24-.76c.12,0,.2,0,.2-.17s-.14-.14-.25-.14h-.19v.31Z"/></g></svg>