<svg xmlns="http://www.w3.org/2000/svg" viewBox="0 0 18 17.75"><defs><style>.cls-1{fill:#231f20;}</style></defs><title>Asset 6</title><g id="Layer_2" data-name="Layer 2"><g id="Layer_2-2" data-name="Layer 2"><path class="cls-1" d="M4.08,1.92A1.92,1.92,0,0,1,2,3.85,1.9,1.9,0,0,1,0,1.92,1.91,1.91,0,0,1,2.05,0,1.9,1.9,0,0,1,4.08,1.92ZM.1,17.75V5.37H4V17.75ZM6.25,9.32c0-1.54-.05-2.84-.1-3.95H9.49l.18,1.72h.08a4.44,4.44,0,0,1,3.82-2c2.53,0,4.43,1.7,4.43,5.34v7.32H14.15V10.89c0-1.59-.56-2.68-2-2.68a2.11,2.11,0,0,0-2,1.44,2.75,2.75,0,0,0-.13,1v7.14H6.25Z"/></g></g></svg>