<svg xmlns="http://www.w3.org/2000/svg" viewBox="0 0 32.11 31.66"><defs><style>.cls-1{fill:#fff;}</style></defs><title>linked-in-icon-white</title><g id="Layer_2" data-name="Layer 2"><g id="Layer_2-2" data-name="Layer 2"><path class="cls-1" d="M7.27,3.43a3.42,3.42,0,0,1-3.7,3.43A3.38,3.38,0,0,1,0,3.43,3.41,3.41,0,0,1,3.66,0,3.4,3.4,0,0,1,7.27,3.43ZM.18,31.66V9.58H7V31.66Zm11-15c0-2.75-.09-5.06-.18-7h6l.32,3.07h.14a7.93,7.93,0,0,1,6.82-3.57c4.51,0,7.9,3,7.9,9.53V31.66H25.24V19.42c0-2.84-1-4.79-3.48-4.79a3.77,3.77,0,0,0-3.52,2.57A4.91,4.91,0,0,0,18,18.92V31.66H11.15Z"/></g></g></svg>