<svg xmlns="http://www.w3.org/2000/svg" xmlns:xlink="http://www.w3.org/1999/xlink" viewBox="0 0 300 200"><defs><style>.cls-1{fill:url(#radial-gradient);filter:url(#luminosity-invert);}.cls-2{isolation:isolate;}.cls-3,.cls-7,.cls-9{fill:#fff;}.cls-4{mask:url(#mask);}.cls-5{fill:#ffe600;}.cls-6{fill:url(#radial-gradient-2);}.cls-7{opacity:0.7;}.cls-8{opacity:0.4;fill:url(#radial-gradient-3);}.cls-10,.cls-9{opacity:0.6;}.cls-10{fill:url(#radial-gradient-4);}.cls-11{opacity:0.28;fill:url(#radial-gradient-5);}.cls-12{opacity:0.27;fill:url(#radial-gradient-6);}.cls-13{fill:#c41f3b;}.cls-14{mix-blend-mode:multiply;}.cls-15{fill:#929497;}.cls-16{opacity:0.3;fill:url(#linear-gradient);}</style><radialGradient id="radial-gradient" cx="259.97" cy="34.91" r="83.29" gradientTransform="translate(-126.88 63.63) scale(1.07 1.04)" gradientUnits="userSpaceOnUse"><stop offset="0.9"/><stop offset="1" stop-color="#fff"/></radialGradient><filter id="luminosity-invert" filterUnits="userSpaceOnUse" color-interpolation-filters="sRGB"><feColorMatrix values="-1 0 0 0 1 0 -1 0 0 1 0 0 -1 0 1 0 0 0 1 0"/></filter><mask id="mask" x="39.63" y="-5.5" width="220.75" height="211" maskUnits="userSpaceOnUse"><path class="cls-1" d="M150,186.77c-48.92,0-88.71-38.92-88.71-86.77S101.09,13.22,150,13.22,238.72,52.15,238.72,100,198.92,186.77,150,186.77Z"/></mask><radialGradient id="radial-gradient-2" cx="259.65" cy="32.21" r="56.39" gradientTransform="translate(-126.88 63.63) scale(1.07 1.04)" gradientUnits="userSpaceOnUse"><stop offset="0" stop-color="#fff"/><stop offset="0.01" stop-color="#fff"/><stop offset="0.58" stop-color="#fff"/><stop offset="0.62" stop-color="#fffefa" stop-opacity="0.98"/><stop offset="0.67" stop-color="#fffdeb" stop-opacity="0.92"/><stop offset="0.73" stop-color="#fffbd2" stop-opacity="0.83"/><stop offset="0.79" stop-color="#fff7b0" stop-opacity="0.69"/><stop offset="0.85" stop-color="#fff384" stop-opacity="0.52"/><stop offset="0.92" stop-color="#ffee4e" stop-opacity="0.31"/><stop offset="0.98" stop-color="#ffe70f" stop-opacity="0.06"/><stop offset="1" stop-color="#ffe600" stop-opacity="0"/></radialGradient><radialGradient id="radial-gradient-3" cx="289.9" cy="72.03" r="10.16" gradientTransform="translate(-120.02 63.94) scale(1.06 1.03)" gradientUnits="userSpaceOnUse"><stop offset="0.9" stop-color="#fff"/><stop offset="1" stop-color="#fff" stop-opacity="0"/></radialGradient><radialGradient id="radial-gradient-4" cx="207.62" cy="-10.6" r="14.76" gradientTransform="translate(-120.02 64.08) scale(1.06 1.03)" xlink:href="#radial-gradient-3"/><radialGradient id="radial-gradient-5" cx="232.11" cy="63.93" r="35.79" gradientTransform="translate(-120.02 63.94) scale(1.06 1.03)" gradientUnits="userSpaceOnUse"><stop offset="0.7" stop-color="#fff"/><stop offset="1" stop-color="#fff" stop-opacity="0.05"/></radialGradient><radialGradient id="radial-gradient-6" cx="211.04" cy="67.94" r="10.16" gradientTransform="translate(-120.02 63.94) scale(1.06 1.03)" gradientUnits="userSpaceOnUse"><stop offset="0.9" stop-color="#fff"/><stop offset="1" stop-color="#fff" stop-opacity="0"/></radialGradient><linearGradient id="linear-gradient" x1="81.29" y1="94.83" x2="166.86" y2="94.83" gradientUnits="userSpaceOnUse"><stop offset="0.06" stop-color="#fff" stop-opacity="0"/><stop offset="0.61" stop-color="#fff" stop-opacity="0.6"/><stop offset="1" stop-color="#fff"/></linearGradient></defs><title>lipton-logo</title><g class="cls-2"><g id="boundary"><rect class="cls-3" width="300" height="200"/></g><g id="Layer_1" data-name="Layer 1"><g class="cls-4"><rect class="cls-5" x="39.63" y="-5.5" width="220.75" height="211"/></g><ellipse class="cls-6" cx="149.66" cy="97.18" rx="60.05" ry="58.74"/><path class="cls-7" d="M80.63,104.19c0-39.54,32.47-71.59,72.52-71.59A72.73,72.73,0,0,1,212.49,63a74.11,74.11,0,0,0-64-36.43c-40.84,0-74,32.68-74,73a72.81,72.81,0,0,0,37.13,63.32A71.24,71.24,0,0,1,80.63,104.19Z"/><ellipse class="cls-8" cx="186.6" cy="138.46" rx="10.75" ry="10.51"/><ellipse class="cls-9" cx="111.44" cy="64.7" rx="7.14" ry="6.98"/><ellipse class="cls-10" cx="99.57" cy="53.1" rx="15.62" ry="15.27"/><path class="cls-11" d="M163.34,130.1c0-20.46-16.95-37-37.86-37s-37.87,16.58-37.87,37,17,37,37.87,37S163.34,150.54,163.34,130.1Z"/><path class="cls-12" d="M113.94,134.24a10.75,10.75,0,1,0-10.75,10.51A10.63,10.63,0,0,0,113.94,134.24Z"/><path class="cls-9" d="M223.79,92.63c.07,1.29.11,2.59.11,3.9,0,38.22-36.83,74.69-75.25,74.69l-1.52,0a61,61,0,0,0,11,.7c34.28,0,67.13-31.19,67.13-65.83A63.2,63.2,0,0,0,223.79,92.63Z"/><path class="cls-13" d="M149.26,126.89a155.16,155.16,0,0,0,31.64-3.11,192.21,192.21,0,0,1,36.34-3.56V79.28a192,192,0,0,1-36.34-3.56,162,162,0,0,0-63.27,0,191.92,191.92,0,0,1-36.34,3.56v40.93a192.16,192.16,0,0,1,36.34,3.56A155.35,155.35,0,0,0,149.26,126.89Z"/><g class="cls-14"><path class="cls-15" d="M115.36,84.56a3.19,3.19,0,1,0,3.26,3.19A3.21,3.21,0,0,0,115.36,84.56Zm-7.08,22.59c-.63,0-.56.93-2.21.93H98.53V89.16c0-1.51-.51-2.63-2.2-2.63H92.08V113h14c1.54,0,2.69-.5,2.69-2.15V107.7C108.76,107.31,108.56,107.15,108.28,107.15Zm7.85-14.43H112c-.4,0-.56.2-.56.47,0,.61,1,.55,1,2.16v15c0,1.51.5,2.63,2.21,2.63h3.73V95.35C118.33,93.84,117.83,92.72,116.13,92.72Zm56.12-.56c-6.87,0-11,4.79-11,10.69s4.16,10.68,11,10.68,11-4.78,11-10.68S179.12,92.16,172.25,92.16Zm0,17.41c-3.24,0-5.14-3-5.14-6.72s1.91-6.72,5.14-6.72,5.15,3,5.15,6.72S175.47,109.57,172.24,109.57Zm34,.82V99.24c0-4.78-2.71-7.08-6.49-7.08A8.55,8.55,0,0,0,193.14,95c-.08-1.31-.64-2.25-2.19-2.25h-4.14c-.39,0-.56.2-.56.47,0,.61.95.55.95,2.16V113h5.94V102c0-3.72,2.47-5.89,4.79-5.89,1.59,0,2.39,1,2.39,2.87v11.42c0,1.51.5,2.63,2.2,2.63h4.12c.4,0,.57-.2.57-.47C207.22,111.94,206.27,112,206.27,110.39ZM157.93,96.64a1,1,0,0,0,1-.82l.78-3.09H154V86.17l-4.46,1.18c-1.12.29-1.49,1.28-1.49,2.55v16.82c0,5.3,3.18,6.82,6.05,6.82a9.6,9.6,0,0,0,5.14-1.08.71.71,0,0,0,.36-.7v-2.21c-3.68.7-5.6-.33-5.6-4V96.64Zm-22.44-4.48a7.93,7.93,0,0,0-6.34,3c-.06-1.38-.59-2.39-2.2-2.39h-4.13c-.39,0-.56.2-.56.47,0,.61,1,.55,1,2.16v23.17c0,1.51.51,2.63,2.21,2.63h3.73v-9.5a8.14,8.14,0,0,0,5.43,1.87c6,0,9.85-4.9,9.85-10.71S141.42,92.16,135.49,92.16Zm-2.43,17.38a4.29,4.29,0,0,1-3.91-2.21v-6.48c.17-3.73,2.43-4.77,4.54-4.77,2.46,0,4.75,2.09,4.75,6.73S135.62,109.54,133.06,109.54Z"/></g><path class="cls-3" d="M117.24,91.52h-4c-.39,0-.55.19-.55.45,0,.59.92.53.92,2.09v14.55c0,1.46.49,2.54,2.14,2.54h3.6V94.06C119.37,92.61,118.89,91.52,117.24,91.52Zm-7.59,14c-.61,0-.54.89-2.14.89h-7.28V88.08c0-1.46-.49-2.55-2.13-2.55H94v25.62h13.52c1.49,0,2.6-.48,2.6-2.09V106C110.11,105.63,109.92,105.48,109.66,105.48Zm6.85-21.84a3.08,3.08,0,1,0,3.15,3.08A3.11,3.11,0,0,0,116.5,83.63Zm55,7.35c-6.64,0-10.67,4.63-10.67,10.34s4,10.33,10.67,10.33,10.67-4.62,10.67-10.33S178.14,91,171.5,91Zm0,16.84c-3.14,0-5-2.91-5-6.5s1.85-6.5,5-6.5,5,2.91,5,6.5S174.62,107.82,171.5,107.82Zm32.89.79V97.83c0-4.62-2.62-6.85-6.28-6.85a8.28,8.28,0,0,0-6.42,2.72c-.08-1.27-.62-2.17-2.12-2.17h-4c-.38,0-.55.19-.55.45,0,.59.92.53.92,2.09v17.09h5.74V100.48c0-3.6,2.4-5.7,4.63-5.7,1.53,0,2.31,1,2.31,2.77v11.05c0,1.46.49,2.54,2.13,2.54h4c.38,0,.54-.2.54-.45C205.31,110.11,204.39,110.17,204.39,108.61ZM136,91a7.66,7.66,0,0,0-6.13,2.87c0-1.34-.57-2.32-2.13-2.32h-4c-.38,0-.54.19-.54.45,0,.59.91.53.91,2.09v22.41c0,1.46.49,2.54,2.14,2.54h3.61v-9.18a7.83,7.83,0,0,0,5.25,1.81c5.81,0,9.53-4.74,9.53-10.36S141.7,91,136,91Zm-2.35,16.8a4.15,4.15,0,0,1-3.78-2.12V99.39c.17-3.61,2.35-4.6,4.39-4.6,2.38,0,4.6,2,4.6,6.5S136.08,107.78,133.61,107.78Zm24-12.46a.92.92,0,0,0,1-.8l.76-3h-5.51V85.19l-4.32,1.14c-1.08.28-1.43,1.24-1.43,2.47v16.26c0,5.13,3.08,6.59,5.86,6.59a9.24,9.24,0,0,0,5-1.05.68.68,0,0,0,.35-.67v-2.14c-3.57.69-5.42-.3-5.42-3.84V95.32Z"/><path class="cls-16" d="M81.29,112.91a66.93,66.93,0,0,0,23.29,4.15c28.88,0,53.43-18.21,62.29-43.53a165.36,165.36,0,0,0-17.6-.93,155.06,155.06,0,0,0-31.64,3.12,191.92,191.92,0,0,1-36.34,3.56Z"/></g></g></svg>