<svg xmlns="http://www.w3.org/2000/svg" viewBox="0 0 32.11 26.09"><defs><style>.cls-1{fill:#fff;}</style></defs><title>twitter-icon-white</title><g id="Layer_2" data-name="Layer 2"><g id="Layer_2-2" data-name="Layer 2"><path class="cls-1" d="M32.11,3.09a13.17,13.17,0,0,1-3.78,1A6.61,6.61,0,0,0,31.22.48,13.2,13.2,0,0,1,27,2.08a6.59,6.59,0,0,0-11.22,6A18.7,18.7,0,0,1,2.24,1.21a6.59,6.59,0,0,0,2,8.79,6.55,6.55,0,0,1-3-.82s0,.06,0,.08a6.59,6.59,0,0,0,5.28,6.46,6.6,6.6,0,0,1-3,.11,6.59,6.59,0,0,0,6.15,4.57,13.22,13.22,0,0,1-8.18,2.82A13.21,13.21,0,0,1,0,23.13a18.64,18.64,0,0,0,10.1,3c12.12,0,18.74-10,18.74-18.74q0-.43,0-.85A13.38,13.38,0,0,0,32.11,3.09Z"/></g></g></svg>