<svg xmlns="http://www.w3.org/2000/svg" viewBox="0 0 300 200"><defs><style>.cls-1{fill:#fff;}.cls-2{fill:#231f20;}.cls-3{fill:#bd202e;}</style></defs><title>vittoria-logo</title><g id="boundary"><rect class="cls-1" width="300" height="200"/></g><g id="Layer_1" data-name="Layer 1"><path class="cls-2" d="M38.92,80.52l8.55-18.77h10l-15,30.9h-7.1L20.47,61.74h9.95Z"/><path class="cls-2" d="M73.54,92.64H64.38V61.74h9.16Z"/><path class="cls-2" d="M98.2,92.64H89V68.55H81.48v-6.8h24.29v6.8H98.2Z"/><path class="cls-2" d="M127.77,92.64h-9.16V68.55H111v-6.8h24.29v6.8h-7.57Z"/><path class="cls-2" d="M180.52,76.62c0,10-8.17,17-19.48,17s-19.48-7.05-19.48-17c0-9.35,9.34-15.9,19.48-15.9S180.52,67.28,180.52,76.62Zm-29.43,0c0,5.33,4.48,9.22,10,9.22s10-3.89,10-9.22c0-4.26-4.48-8.16-10-8.16S151.08,72.4,151.08,76.66Z"/><path class="cls-2" d="M218.73,92.64H207.33l-8.64-11.88h-.09V92.64h-9.16V61.74h13.69c7,0,12.23,2.91,12.23,9.51a8.59,8.59,0,0,1-7.7,8.73Zm-20.13-17h.89c3,0,6.36-.49,6.36-3.85s-3.37-3.85-6.36-3.85h-.89Z"/><path class="cls-2" d="M235,92.64h-9.16V61.74H235Z"/><path class="cls-2" d="M254.66,87.27l-2.43,5.37h-9.72l13.54-30.9h10l13.27,30.9h-9.76l-2.29-5.37Zm6.4-16H261l-3.78,9.84h7.62Z"/><path class="cls-2" d="M45.88,117.93a8.71,8.71,0,0,0-7.05-3.4c-4.92,0-8.24,3.77-8.24,8.56A8,8,0,0,0,39,131.5a9.24,9.24,0,0,0,6.93-3.28v9.63a22.84,22.84,0,0,1-7.09,1.43,17.22,17.22,0,0,1-11.6-4.55,15.12,15.12,0,0,1-5-11.68,16.16,16.16,0,0,1,4.55-11.31,16.75,16.75,0,0,1,11.76-5,18.86,18.86,0,0,1,7.34,1.56Z"/><path class="cls-2" d="M111.16,133.09,109,138.46H100.5l11.88-30.91h8.77l11.64,30.91h-8.56l-2-5.37Zm5.62-16h-.08l-3.32,9.84h6.68Z"/><path class="cls-2" d="M195.78,114.37v5.16h8.81v6.81h-8.81v12.13h-8V107.56H205.5v6.81Z"/><path class="cls-2" d="M270.45,114.37v5.16h9.05v6.81h-9.05v5.32H280v6.81H262.42V107.56H280v6.81Z"/><rect class="cls-3" x="20" y="94.9" width="259.82" height="11.31"/><path class="cls-1" d="M27.25,99.93V97h2v7.5h-2v-3.07H24.36v3.07h-2V97h2v2.89Z"/><path class="cls-1" d="M35.08,103.23l-.53,1.3H32.43l3-7.5h2.19l2.9,7.5H38.34l-.5-1.3Zm1.4-3.88h0l-.83,2.39H37.3Z"/><path class="cls-1" d="M43.66,97h2l3.67,4.59h0V97h2v7.5h-2l-3.67-4.6h0v4.6h-2Z"/><path class="cls-1" d="M55.22,97h2.84a3.75,3.75,0,1,1,0,7.5H55.22Zm2,5.85h.45a2.1,2.1,0,1,0,0-4.2h-.47Z"/><path class="cls-1" d="M77,99.55a2.19,2.19,0,0,0-1.76-.83,2,2,0,0,0-2.05,2.08,2,2,0,0,0,2.08,2A2.34,2.34,0,0,0,77,102v2.34a5.8,5.8,0,0,1-1.77.35,4.35,4.35,0,0,1-2.89-1.11,3.61,3.61,0,0,1-1.24-2.84A3.88,3.88,0,0,1,72.27,98a4.25,4.25,0,0,1,2.94-1.21,4.8,4.8,0,0,1,1.83.38Z"/><path class="cls-1" d="M87.24,104.53h-2.5l-1.89-2.89h0v2.89h-2V97h3c1.52,0,2.68.71,2.68,2.31a2,2,0,0,1-1.69,2.12Zm-4.41-4.14H83c.66,0,1.39-.12,1.39-.94s-.74-.94-1.39-.94h-.19Z"/><path class="cls-1" d="M92.3,103.23l-.53,1.3H89.64l3-7.5H94.8l2.9,7.5H95.56l-.5-1.3Zm1.4-3.88h0l-.83,2.39h1.67Z"/><path class="cls-1" d="M102.89,98.68v1.25h2.19v1.65h-2.19v2.94h-2V97h4.43v1.65Z"/><path class="cls-1" d="M112,104.53h-2V98.68h-1.66V97h5.32v1.65H112Z"/><path class="cls-1" d="M119,98.68v1.25h2.26v1.65H119v1.29h2.38v1.65H117V97h4.39v1.65Z"/><path class="cls-1" d="M125.16,97H128a3.75,3.75,0,1,1,0,7.5h-2.84Zm2,5.85h.45a2.1,2.1,0,1,0,0-4.2h-.47Z"/><path class="cls-1" d="M138.05,102.63l-1.88,3.3H135l1.33-3.3Z"/><path class="cls-1" d="M149.49,103.23l-.53,1.3h-2.13l3-7.5H152l2.9,7.5h-2.14l-.5-1.3Zm1.4-3.88h0l-.83,2.39h1.67Z"/><path class="cls-1" d="M164.48,104.53H162l-1.89-2.89h0v2.89h-2V97h3c1.52,0,2.68.71,2.68,2.31a2,2,0,0,1-1.69,2.12Zm-4.41-4.14h.2c.65,0,1.39-.12,1.39-.94s-.74-.94-1.39-.94h-.2Z"/><path class="cls-1" d="M170.65,104.53h-2V98.68H167V97h5.31v1.65h-1.65Z"/><path class="cls-1" d="M177.59,104.53h-2V97h2Z"/><path class="cls-1" d="M185.68,99a2.13,2.13,0,0,0-1.33-.5c-.37,0-.86.21-.86.63s.54.61.89.72l.51.15c1.07.31,1.9.83,1.9,2a2.51,2.51,0,0,1-.79,2,3.44,3.44,0,0,1-2.19.71,4.87,4.87,0,0,1-2.71-.85l.86-1.57a2.79,2.79,0,0,0,1.78.77c.47,0,1-.23,1-.76s-.79-.74-1.22-.86c-1.26-.35-2.09-.67-2.09-2.12a2.47,2.47,0,0,1,2.66-2.52,5.4,5.4,0,0,1,2.41.62Z"/><path class="cls-1" d="M192.27,103.23l-.53,1.3h-2.13l3-7.5h2.19l2.9,7.5h-2.14l-.5-1.3Zm1.4-3.88h0l-.83,2.39h1.67Z"/><path class="cls-1" d="M200.84,97h2l3.67,4.59h0V97h2v7.5h-2l-3.67-4.6h0v4.6h-2Z"/><path class="cls-1" d="M224,99.55a2.19,2.19,0,0,0-1.76-.83,2,2,0,0,0-2.06,2.08,2,2,0,0,0,2.09,2A2.33,2.33,0,0,0,224,102v2.34a5.81,5.81,0,0,1-1.77.35,4.36,4.36,0,0,1-2.89-1.11,3.62,3.62,0,0,1-1.24-2.84A3.87,3.87,0,0,1,219.22,98a4.24,4.24,0,0,1,2.93-1.21,4.8,4.8,0,0,1,1.83.38Z"/><path class="cls-1" d="M235.91,100.64a4.28,4.28,0,1,1-4.26-3.86A4,4,0,0,1,235.91,100.64Zm-6.44,0a2.18,2.18,0,1,0,4.35,0,2.19,2.19,0,0,0-4.35,0Z"/><path class="cls-1" d="M241.4,98.68v1.25h2.2v1.65h-2.2v2.94h-2V97h4.43v1.65Z"/><path class="cls-1" d="M249.5,98.68v1.25h2.2v1.65h-2.2v2.94h-2V97h4.43v1.65Z"/><path class="cls-1" d="M257.6,98.68v1.25h2.26v1.65H257.6v1.29H260v1.65h-4.38V97H260v1.65Z"/><path class="cls-1" d="M265.78,98.68v1.25H268v1.65h-2.26v1.29h2.38v1.65h-4.38V97h4.38v1.65Z"/><path class="cls-1" d="M276.18,99a2.13,2.13,0,0,0-1.33-.5c-.37,0-.86.21-.86.63s.54.61.89.72l.51.15c1.07.31,1.9.83,1.9,2a2.51,2.51,0,0,1-.8,2,3.44,3.44,0,0,1-2.19.71,4.86,4.86,0,0,1-2.71-.85l.86-1.57a2.78,2.78,0,0,0,1.78.77c.47,0,1-.23,1-.76s-.79-.74-1.22-.86c-1.26-.35-2.09-.67-2.09-2.12a2.47,2.47,0,0,1,2.66-2.52,5.42,5.42,0,0,1,2.41.62Z"/></g></svg>