<svg xmlns="http://www.w3.org/2000/svg" viewBox="0 0 1200 1180.69" preserveAspectRatio="none slice"><defs><style>.cls-1{fill:#244d8c;}</style></defs><title>Asset 6</title><g id="Layer_2" data-name="Layer 2"><g id="Layer_1-2" data-name="Layer 1"><path class="cls-1" d="M104.35,79.89q65-4.92,129.91-11.29c43.29-4.32,86.5-9.37,129.74-14.1,43.4-4.75,86.85-9.18,130.41-12.24,21.71-1.53,43.46-2.71,65.21-3.42,21.47-.7,43-.13,64.45-1.67,42.67-3.07,84.55-12.57,127.15-16.27,21.54-1.87,43.24-2,64.85-1.62,21.86.34,43.7,1.36,65.52,2.78C924.87,24.86,968,29.23,1011.22,33c43.55,3.76,87.21,6.86,130.94,7.05q15.76.07,31.52-.4,7.87-.24,15.74-.64,3.93-.2,7.86-.44c.53,0,2.62.12,2.62-.43V36.69c-43.68,2.85-87.52,1.74-131.17-1-43.27-2.72-86.4-7.07-129.58-10.83-43.37-3.77-86.84-7-130.4-7.32-21.56-.18-43.13.2-64.6,2.36-21.31,2.15-42.46,5.58-63.64,8.77s-42.16,6.11-63.42,7.26c-10.69.58-21.38.48-32.08.63q-16.3.24-32.6.85c-43.6,1.63-87.11,5.11-130.52,9.36s-86.79,9.29-130.17,14.07Q227.13,68,162.39,73.47C118.68,77.24,74.95,80.58,31.14,83q-8.92.49-17.84.94l-9.25.46a32.66,32.66,0,0,0-4,.26v1.6q52.17-2.46,104.26-6.37Z"/><path class="cls-1" d="M1075.86,90q32.14-.43,64.26-1.44,16.28-.51,32.55-1.16,8-.32,15.95-.67l8-.36a23.34,23.34,0,0,0,3.32-.23V84.6C1156,86.67,1112,88.06,1068,88.48c-21.36.2-42.78,0-64-2.43s-41.91-7.79-62.36-14.1-40.51-12.74-61-18.41c-20.19-5.59-40.53-10.62-61-15C778.66,29.91,737,24,695.19,22.42a555.91,555.91,0,0,0-62.36,1C611.76,25,590.91,28.39,570,31c-42.65,5.38-85.55,9.18-128.56,9.75-42.67.57-85.46-2.07-127.5-9.56-41.64-7.42-82.27-19.9-124.36-24.84C171.32,4.24,153,3.3,134.67,2.82c-22-.58-43.94-.52-65.9,0q-18.5.46-37,1.38-9.25.45-18.49,1L4,5.81a30.25,30.25,0,0,0-4,.33v1.6C44.21,4.8,88.47,3.36,132.68,4.43c18.44.45,36.88,1.35,55.21,3.43,20.35,2.32,40.43,6.35,60.4,10.83,21.09,4.73,42.09,9.94,63.36,13.81a608.07,608.07,0,0,0,63.34,8c42.68,3.2,85.59,2.31,128.25-1,21.44-1.64,42.83-3.89,64.17-6.55,21-2.61,41.86-6,62.94-7.7C672,22,713.86,23.86,755.2,29.21c41.6,5.39,82.69,14.31,123.11,25.42C898.8,60.26,919,66.68,939.31,73c20.47,6.35,41.12,11.89,62.44,14.48,24.58,3,49.4,2.92,74.12,2.59Z"/><path class="cls-1" d="M161,126.14c42.47-8.41,85.18-15.66,128.11-21.27s86.07-9.55,129.32-11.33a1155.88,1155.88,0,0,1,129.75,1.7q16.23,1.16,32.41,2.83c10.79,1.11,21.54,2.58,32.34,3.6a600.19,600.19,0,0,0,64.93,2.24C721,103.28,764.06,99.5,807.13,97c43.56-2.56,87.16-4.86,130.81-4.34s87.39,3.52,130.89,7.92,86.63,10.17,129.8,16.35l1.29.18v-1.42c0-.56-2-.56-2.57-.63l-8.37-1.19-16.13-2.26q-16.18-2.24-32.37-4.35c-21.67-2.82-43.36-5.42-65.1-7.69-43.49-4.53-87.15-7.72-130.89-8.49s-87.36,1.33-131,3.86c-43.06,2.5-86.1,6.24-129.23,7.19a636.51,636.51,0,0,1-64.92-1.56c-10.81-.87-21.55-2.29-32.33-3.47s-21.62-2.19-32.45-3a1145.56,1145.56,0,0,0-129.87-2.43C381.42,93.2,338.23,97,295.27,102.4S209.54,115,167,123.26c-42.83,8.36-85.6,17-128.63,24.31Q27.69,149.38,17,151.1q-5.52.88-11,1.73l-5.19.79c-1,.15-.65.86-.65,1.78,43.4-6.5,86.54-14.63,129.59-23.07q15.65-3.07,31.3-6.18Z"/><path class="cls-1" d="M825.37,158.46C846,164.28,866.68,170.13,888,173c21.44,2.87,43.14,2.53,64.71,1.73,43.14-1.6,86.31-3.42,129.38-6.46,20.4-1.44,40.77-3.19,61.1-5.42q15.33-1.68,30.62-3.72,7.85-1,15.69-2.17l7.85-1.15c.54-.08,2.62-.09,2.62-.65v-1.42c-43.26,6.49-86.74,10.88-130.38,13.71-21.64,1.4-43.29,2.49-64.95,3.46-21.38,1-42.77,2-64.16,2.55-21.58.53-43.14-.11-64.41-4.05s-41.83-10.26-62.57-16C772.12,142,730.83,129.7,688.6,122.09a407.49,407.49,0,0,0-63.25-6.79,257.19,257.19,0,0,0-61.19,5.76c-19.9,4.38-39.31,10.63-58.74,16.68s-39.09,11.64-59.16,15.62-40.29,7.58-60.77,7.95c-21.4.38-42.59-3.23-63.43-7.8-21.15-4.64-42.17-9.84-63.37-14.26s-42.69-8.44-64.14-12q-64.18-10.75-129-16.88Q32.85,107.19.09,105.06v1.41c0,.55,2.07.4,2.6.43l8.44.58q8.11.57,16.22,1.2,16.22,1.27,32.42,2.78,32.41,3,64.7,7.13,64.71,8.24,128.7,21.22c21.27,4.36,42.36,9.43,63.54,14.21s42.39,8.83,64,9c20.45.15,40.72-3.13,60.74-7,10.19-2,20.34-4.07,30.39-6.71,9.84-2.58,19.59-5.51,29.3-8.51,19.49-6,38.91-12.42,58.79-17.08a256.63,256.63,0,0,1,61-6.79c42.8.36,85,9.37,126.23,20.11,26.15,6.81,52.2,14.09,78.2,21.44Z"/><path class="cls-1" d="M196.13,235.88c43.41-.47,86.52-6.36,129.42-12.5,36.24-5.18,72.48-10.62,109-12.85,31.76-1.94,63.62-2.66,95.44-2.66,15.21,0,30.42.19,45.63.74,15.82.57,31.58,1.88,47.37,3.08,43.94,3.35,87.89,6.54,131.87,9.14s87.79,4.62,131.73,5.63c43.57,1,87.1.56,130.67-.23,43.76-.79,87.54-1.37,131.31-.86q25.65.3,51.3,1.17v-1.41c0-.54-2.1-.33-2.63-.35l-8.54-.27q-8.22-.24-16.44-.42-16.46-.36-32.93-.49c-21.95-.18-43.89-.11-65.84.12-43.51.45-87,1.82-130.53,1.76-43.83-.06-87.65-1.32-131.43-3.34-44-2-88-4.82-131.89-8q-32.94-2.35-65.87-4.9c-14.69-1.13-29.36-2.13-44.09-2.57-32-1-64-.65-96,.37-31.27,1-62.33,3.09-93.38,7-43,5.45-85.78,12.8-129,16.94-21.64,2.08-43.33,3.24-65.07,3.19s-43.76-1-65.6-2.31c-40.21-2.38-80.34-5.66-120.61-7.07v1.41c0,.54,2.13.34,2.65.35l8.61.33q8.27.34,16.54.75c10.86.54,21.72,1.21,32.57,1.92,21.58,1.41,43.15,3,64.74,4.24,23.62,1.35,47.28,2.26,70.94,2Z"/><path class="cls-1" d="M600,290.4c41,2.91,81.6-6.44,120.37-18.85,19.9-6.37,39.51-13.61,59.13-20.8s39.34-14.15,59.11-20.93c40-13.73,80.45-26.62,122.09-34.32a409.46,409.46,0,0,1,62.34-6.94c21.64-.64,43.25,1,64.72,3.59s43,5.88,64.46,9l47.67,6.83h0c0-.95.41-1.62-.53-1.76l-2.55-.37-10.16-1.46-30.94-4.43c-20.43-2.93-40.84-6-61.31-8.63-21.59-2.75-43.31-4.78-65.1-4.53a396.82,396.82,0,0,0-62.44,5.94c-41.7,7.14-82.25,19.7-122.23,33.3q-29.73,10.11-59.26,20.83c-19.63,7.17-39.22,14.49-59.07,21-38.71,12.77-79.18,22.93-120.24,21.21a335.17,335.17,0,0,1-39.91-4.6c-15-2.45-30-5.37-44.9-8.4-31.68-6.43-63.23-13.52-95-19.35-13.6-2.5-27.26-4.8-41-6.31-18-2-36-1.58-54.11-.49-21.38,1.3-42.82,3.23-64.24,1.75-21.63-1.5-43-6.13-64.17-10.81s-42.05-9.38-63.26-13.27-42.68-7.3-64.1-10.49c-24.05-3.58-48.13-7-72.2-10.42l-3.06-.44c0,1.54-.32,1.64,1,1.83l4.66.67L21,210.92l30.54,4.38c42.73,6.16,85.43,12.69,127.6,22C200.3,242,221.38,247,242.8,250.44a257.58,257.58,0,0,0,32.2,3.3c10.69.34,21.39,0,32.06-.65,21.2-1.19,42.44-3.28,63.69-2.23a350.18,350.18,0,0,1,39.07,4.64c31.3,5.12,62.29,12,93.33,18.49,28.86,6,57.87,12.32,87.21,15.53C593.56,289.87,596.78,290.17,600,290.4Z"/><path class="cls-1" d="M9.12,364.19l18-.82,46.07-2.09,62-2.81,65.8-3,57.51-2.6,37.11-1.68c18.37-.83,36.75-1.62,55.11-2.76,23.28-1.44,46.43-3.82,69.57-6.64q21.62-2.63,43.26-5.12,31.1-3.57,62.23-6.86,36.8-3.88,73.65-7.29Q638.2,319,677,316.15c24.6-1.77,49.22-3.27,73.87-4.22,20.87-.81,41.78-1.28,62.66-.72,14.62.39,29.56,1,43.91,4.09,19.76,4.28,39.08,10.55,58.56,15.92C936.86,337,957.9,341.71,979.45,344c21.32,2.25,42.79,2.59,64.22,2.26,21.89-.34,43.78-1.21,65.66-2.16q23.8-1,47.59-2.38,11.91-.67,23.81-1.43l11.91-.77,6-.4c.81-.05,1.32.24,1.32-.62v-1.14q-66,4.52-132.18,6.63c-42.93,1.36-85.94,1.37-128-8.38-21-4.86-41.53-11.35-62.31-17-10.16-2.75-20.32-5.47-30.77-6.81-16.73-2.15-33.7-2.46-50.55-2.48-22.32,0-44.65.79-66.94,1.92-25.29,1.29-50.56,3-75.8,5q-38.6,3-77.14,6.81-35.5,3.43-71,7.29-28.64,3.11-57.26,6.46-18,2.11-36,4.33c-33.22,4.1-66.57,6.11-100,7.65l-24.66,1.12-44.5,2-61.27,2.77-65.93,3-58.48,2.65-38.93,1.76-7.44.34-1.51.07-.82,0-6.4.29c-.47,0-1.92-.21-1.92.35v1.41Z"/><path class="cls-1" d="M1109.71,349.31c29.64,11.29,59.38,22.62,90.2,30.27v-1.44c0-.58-2-.76-2.49-.9q-4.05-1-8.09-2.16-7.77-2.16-15.46-4.57c-10.27-3.21-20.44-6.72-30.56-10.39-19.8-7.17-39.37-14.92-59.12-22.21-38.83-14.32-79-27.06-120.62-28.92-43.44-1.93-86.26,7.84-128.77,15.29S749.85,340,706.86,344.18a498.42,498.42,0,0,1-64.14,2.36c-21.53-.71-42.65-3.82-63.88-7.27-42.92-7-85.72-14.73-128.78-20.82-42.83-6.06-86-10.48-129.27-10.66A580.15,580.15,0,0,0,256.11,311c-21.85,2.36-43.61,5.61-65.43,8.27q-65.51,8-131.27,13.54-16.14,1.37-32.29,2.6-7.91.6-15.82,1.17l-7.91.56a22.08,22.08,0,0,0-3.3.3V339q66-4.52,131.79-11.42,32.8-3.44,65.53-7.49c21.79-2.69,43.53-6,65.38-8.13,43-4.1,86.35-2.87,129.31,1.16,43.24,4.06,86.15,10.93,129,18.11,21.4,3.59,42.78,7.26,64.2,10.71,10.6,1.71,21.19,3.44,31.88,4.54s21.24,1.69,31.89,1.88c43,.76,85.82-5.09,128.14-12.24,21.24-3.59,42.43-7.45,63.63-11.21s42.43-8,63.82-10.89,42.93-4.52,64.46-3.06c20.69,1.41,41.13,5.45,61.11,10.93,27.06,7.42,53.31,17.42,79.51,27.4Z"/><path class="cls-1" d="M600,410.59c19.22,0,38.44-.57,57.65-1.16q37.56-1.14,75.1-2.73,39.42-1.61,78.83-3.44Q846,401.67,880.41,400q22.55-1.11,45.09-2.27c17.17-.89,34.35-1.51,51.53-2.14,43.7-1.62,87.44-2.83,131.18-2.36,30.59.33,61.15,1.55,91.71,3v-1.41c0-.55-2.08-.36-2.6-.38l-8.47-.38q-8.17-.36-16.35-.69-16.4-.66-32.81-1.14-32.79-.92-65.59-.67c-43.63.32-87.23,2-130.83,3.71-8.85.35-17.69.83-26.53,1.28q-26.32,1.35-52.65,2.63-36.41,1.77-72.82,3.42-39.61,1.78-79.23,3.34c-24,.93-47.91,1.78-71.88,2.4-17.74.46-35.48.8-53.22.59-22.43-.27-44.85-1-67.26-1.74q-39.42-1.34-78.83-3-34.09-1.43-68.17-3-17.65-.81-35.3-1.67c-2.53-.12-5.06,0-7.59,0l-32.32.41q-32.62.39-65.25.57c-43.74.19-87.49-.11-131.21-1.53C67.34,397.8,33.72,396,.09,394.48v1.41c0,.55,2.09.36,2.61.38l8.47.4,16.17.77q16.2.77,32.41,1.51c21.8,1,43.6,1.78,65.41,2.29,43.74,1,87.51,1.05,131.26.71q32.5-.26,65-.72c6.35-.08,12.67-.3,19,0q21.53,1,43.06,2,35.9,1.63,71.81,3.11,39.17,1.6,78.36,2.89c20.89.66,41.78,1.29,62.68,1.35Z"/><path class="cls-1" d="M177,465.37c21.35-.15,42.68-.27,64-1.56,21.1-1.27,42.15-3.39,63.12-6,42.06-5.29,83.81-12.65,125.61-19.59s83.66-13.46,125.88-17q15.81-1.34,31.66-2.08c7.86-.36,15.65-.8,23.47.23,15.25,2,30.14,6.33,45.13,9.66a189.33,189.33,0,0,0,21.51,3.81,74.54,74.54,0,0,0,22.4-1.33c18.87-3.77,36.31-12.33,54.27-18.92,19.31-7.09,39.64-10.47,60-12.66A454.46,454.46,0,0,1,878,397.76c43,1.46,85.7,8.08,127.9,16.33,42.41,8.29,84.46,18.29,126.81,26.84,22.31,4.51,44.71,8.62,67.24,11.85v-1.42c0-.55-1.78-.51-2.29-.58q-4.15-.61-8.29-1.25-8-1.25-16-2.63-16.06-2.77-32-5.94c-21.25-4.19-42.42-8.79-63.58-13.41-42.14-9.2-84.31-18.49-127-24.66-42.31-6.12-85.27-9.16-128-5.52q-16,1.36-31.8,4a202.81,202.81,0,0,0-29.59,6.87c-18.34,6-35.69,14.81-54.36,19.84-8.06,2.17-16.54,3.8-24.91,3.49a123.58,123.58,0,0,1-20.34-2.88c-15.28-3.15-30.3-7.56-45.68-10.24a98.87,98.87,0,0,0-20.5-1.41q-15.86.52-31.7,1.72c-21.1,1.57-42.13,3.93-63.1,6.75-42,5.66-83.77,13.18-125.61,20s-83.68,13.05-125.92,16-84.59,1.61-126.87,2.93c-21,.66-42.06,1.9-63,4.4-10.42,1.25-20.8,2.81-31.11,4.78Q20.56,475.18,12.9,477q-3.68.86-7.34,1.79l-3.65,1c-1.2.32-1.82.11-1.82,1.36v.87c40.6-11.16,82.84-14.6,124.77-15.82,17.38-.51,34.78-.63,52.17-.75Z"/><path class="cls-1" d="M245.42,492.25c41.21-6,83-5.15,124.44-1.7,42,3.5,83.77,9.64,125.66,14.32,21,2.35,42.1,4.34,63.24,5.45,20.4,1.07,40.94,1.57,61.33,0,38.82-3,76.75-12.42,114.47-21.57,37.92-9.2,76.15-18.38,115.21-20.8a281.67,281.67,0,0,1,58.73,2.31c21.51,3.18,42.73,8,63.81,13.31,42.12,10.6,83.84,23,126.94,29.09,17.4,2.46,34.92,4.09,52.46,5q13.33.7,26.68.88,6.52.09,13,.07l6.52,0c.46,0,2,.27,2-.28v-1.41c-43.54.59-87.2-2.37-129.94-10.9-42.47-8.47-83.82-21.64-126.12-30.85-20.35-4.43-41-8.17-61.81-9.14a329.26,329.26,0,0,0-58.21,2.85c-38.9,5.12-76.85,15.4-115,24.37-37.9,8.91-76.13,16.28-115.2,16.3-42.39,0-84.6-4.57-126.62-9.7-41.73-5.09-83.46-10.76-125.48-12.84a560,560,0,0,0-62.26.12c-21.35,1.32-42.43,4.69-63.57,7.8-43.22,6.36-86.46,12.68-129.95,16.93-15,1.47-30.07,2.69-45.14,3.57q-11.44.67-22.9,1.07-5.56.19-11.11.31l-5.88.11c-1,0-.65.76-.65,1.68,43.79-.59,87.46-4.7,130.89-10.14,38.23-4.8,76.32-10.66,114.45-16.18Z"/><path class="cls-1" d="M815.76,508.73c37.94-1.83,76.45-3.6,113.93,3.91a192.45,192.45,0,0,1,55.31,20c18.19,10,35.07,22.26,53.48,31.9,34.19,17.91,72.59,23.65,110.84,22.33,9.15-.32,18.28-1,27.39-1.95q7-.73,14-1.66,3.38-.45,6.76-.93c.53-.08,2.47-.06,2.47-.62v-1.42c-38.38,5.68-78.11,8.17-116.21-.75a197.08,197.08,0,0,1-54-21.76c-18.07-10.47-35.13-22.73-54-31.83-35.2-17-74.84-20.75-113.43-20.52-16.67.1-33.33,1-50,1.73l-20.17,1q-18.07.89-36.14,1.81-24.75,1.27-49.49,2.61-30.12,1.63-60.23,3.35-34.19,2-68.36,4Q541,522.27,504,524.7q-38.4,2.53-76.78,5.28-38.55,2.77-77.07,5.82-37.39,3-74.75,6.31-34.93,3.14-69.81,6.75c-20.78,2.17-41.54,4.51-62.26,7.14-17.41,2.21-34.79,4.62-52.1,7.49-24.33,4-48.35,9.63-72.64,13.85q-5.88,1-11.78,2l-5.53.85c-.8.12-1.23-.11-1.23.72V582c28.38-4.19,56.27-10.79,84.51-15.71,16.69-2.91,33.47-5.32,50.27-7.53,20.25-2.67,40.53-5,60.84-7.2q34.37-3.69,68.79-6.81,37-3.4,74.13-6.38,38.42-3.11,76.86-5.9t77-5.36q37.23-2.48,74.48-4.78,34.68-2.14,69.37-4.15,30.82-1.78,61.65-3.46,25.65-1.4,51.31-2.73,19.18-1,38.37-1.94l22.81-1.1Z"/><path class="cls-1" d="M600,646.74c21.07-2.19,41.87-6.42,62.55-10.92,21.33-4.64,42.66-9.3,63.91-14.3,42.1-9.91,84-20.8,126-30.9s84.26-19.41,127-26.11c42.5-6.67,85.5-10.72,128.55-10.17a637,637,0,0,1,91.94,8.32v-1.42c0-.57-2.07-.59-2.61-.67q-4.24-.66-8.49-1.28-8.17-1.19-16.36-2.2c-10.89-1.34-21.81-2.41-32.75-3.15a608.76,608.76,0,0,0-64.5-.83c-43.06,1.66-85.88,7.41-128.22,15.29s-84.43,17.91-126.32,28.28c-42.09,10.41-84.1,21.18-126.45,30.49-21.05,4.63-42.08,9.52-63.29,13.37a504.06,504.06,0,0,1-62.67,7c-42.44,2.3-85,.57-127.28-3.69-42.69-4.3-85.07-11.17-127.22-19.14s-84.32-17.1-126.4-26c-21-4.43-42-8.65-63-13-21.23-4.4-42.41-9.07-63.65-13.46C40.58,568.12,20.39,564.2.09,561v1.42c0,.57,2.07.59,2.61.68q4.23.69,8.46,1.41,8.12,1.39,16.23,2.9c10.77,2,21.51,4.15,32.24,6.36,21.28,4.39,42.5,9.06,63.77,13.48q63.09,13.1,126.15,26.34c42.15,8.79,84.42,17.15,127,23.69,42.2,6.48,84.74,11.18,127.43,12.58A707.32,707.32,0,0,0,600,646.74Z"/><path class="cls-1" d="M811.9,669.86c41.87-5.24,82.53-17.26,122.25-31.19,37.25-13.07,73.71-28.83,111.78-39.44a298.65,298.65,0,0,1,62.69-10.64c21.38-1.26,42.8-.59,64.19.09l27.1.86c0-1.78.2-1.66-1.43-1.71l-6-.19-15.54-.5c-16.35-.52-32.71-1.1-49.07-.89-21.45.27-42.79,2.11-63.77,6.71-20.58,4.51-40.62,11.13-60.41,18.3-37.26,13.51-74.06,28.23-112.09,39.53a534,534,0,0,1-61.28,14.63,241.59,241.59,0,0,1-35.34,3.9c-21.6.51-43.26-1.23-64.74-3.32-25.65-2.5-51.22-5.85-76.72-9.57Q617.6,651.19,581.8,645,556.87,640.71,532,636q-5.69-1.07-11.37-2.17a18.14,18.14,0,0,0-3.27-.32c-10.57-.28-21.15-.57-31.71-1.14-21.41-1.16-42.61-3.72-63.42-9-21-5.35-41.48-12.53-62.61-17.37-34.07-7.8-69.16-8.88-104-10l-27.14-.86-54.3-1.73-65.53-2.09-60.83-1.94-40.2-1.28-7.59-.24c0,1.65-.35,1.66,1,1.7l3.62.12,14.25.45,49.57,1.58,64.38,2.05,63.26,2,46.22,1.47c12.27.39,24.54.74,36.81,1.25,21.31.88,42.66,2.33,63.71,5.89,21.32,3.61,41.87,10.12,62.6,16.12,10.44,3,20.95,5.86,31.62,8a302.52,302.52,0,0,0,31.77,4.41c10.63.95,21.29,1.48,32,1.84,5.28.18,10.56.33,15.85.46a16.94,16.94,0,0,1,2.8.12c9.08,1.77,18.18,3.46,27.28,5.12q29.92,5.46,59.93,10.38c25.15,4.11,50.35,7.94,75.62,11.26,24.7,3.25,49.47,6.1,74.33,7.77,18.27,1.22,37,2.28,55.25,0Z"/><path class="cls-1" d="M417.37,796c21-4.42,41.46-10.72,61.72-17.58q7.55-2.56,15.07-5.2l7.17-2.52c1.84-.65,4-1.86,6-2.11l5.28-.67c22.93-2.92,45.86-5.9,68.73-9.32,14-2.1,27.93-4.78,41.87-7.35q32.22-6,64.49-11.58c43-7.45,86.15-14.26,129.45-19.85s86.64-9.94,130.16-12.46q32.64-1.89,65.34-2.33c21.34-.28,42.68-.26,64-.64s42.67-1.16,63.93-3c10.61-.94,21.2-2.15,31.74-3.73q7.89-1.18,15.73-2.65,3.76-.71,7.51-1.48l3.74-.8c.93-.2.62-.69.62-1.57v-.27c-41.68,9.21-84.54,11.28-127.1,11.95-21.37.33-42.74.3-64.1.63q-32.71.5-65.37,2.51c-43.52,2.62-86.91,7.06-130.13,12.71s-86.41,12.52-129.42,20q-32.27,5.61-64.48,11.62c-13.35,2.48-26.67,5-40.1,7-22.61,3.36-45.27,6.33-67.94,9.23a25.1,25.1,0,0,0-5.13.79c-10,3.53-19.94,7-30,10.42-20.24,6.8-40.73,13-61.67,17.25-41.92,8.52-85,9.34-127.53,5.77-43-3.61-85.5-11.55-127.68-20.43-42.37-8.92-84.55-18.82-127.16-26.58q-16-2.91-32-5.36v1.42c0,.56,2,.57,2.56.65q4.17.64,8.34,1.32,8,1.31,16.07,2.74,16.12,2.87,32.17,6.12c21.28,4.28,42.49,8.92,63.7,13.55,42.15,9.2,84.38,18.32,127.15,24.14,42.33,5.76,85.33,8.25,127.92,3.87A378.17,378.17,0,0,0,417.37,796Z"/><path class="cls-1" d="M600,811.18c5.18-.18,10.25-1.34,15.31-2.39s10.36-1.84,15.55-2.69c10.63-1.75,21.25-3.54,31.84-5.48C684,796.71,705,791.87,726,786.79s42.21-10.33,63.51-14.65,42.63-7.47,64.15-9.78c35.08-3.77,70.34-5.43,105.57-7.1l28.51-1.35,56.11-2.66,65.76-3.11,57.46-2.72,31.21-1.48c1.7-.08,1.6.25,1.6-1.74l-21.41,1-52.3,2.48-65.28,3.09-60.36,2.86L963,753.42c-25,1.18-50,2.33-75,4.19-21.48,1.6-42.93,3.72-64.24,6.85-21.57,3.17-42.9,7.59-64.12,12.55s-42.25,10.32-63.47,15.07-42.38,8.54-63.71,12.06c-5.23.86-10.49,1.61-15.68,2.64s-10.28,2.3-15.54,2.64c-4.33.28-8.71.21-13,.14-10.32-.15-20.63-.71-30.92-1.4-25.42-1.71-50.78-4.29-76.1-7.11Q444.7,797,408.3,792.21q-21.51-2.8-43-5.81l-2.95-.42c-2.47-.35-5.27,0-7.77.06-5.35.05-10.69.08-16,0-21.52-.13-42.86-1.62-64-6C232.71,771.36,193,754.47,151,746.3c-42.18-8.2-85.43-7.11-128.14-5.17L7,741.87l-5.5.26c-1.65.08-1.45,0-1.45,1.73,36.14-1.71,72.4-3.81,108.55-1.3a350.68,350.68,0,0,1,63.55,10.29c20.78,5.37,41.15,12.18,61.7,18.33s41.3,11.62,62.58,14.24,43,2.45,64.51,2.21a57.94,57.94,0,0,1,8.55,1q10.12,1.41,20.25,2.77,33,4.44,66.09,8.4c26,3.09,51.94,5.95,78,8.21,21,1.82,42.13,3.61,63.2,3.23Z"/><path class="cls-1" d="M384.39,915.17C424.06,901.3,466.16,898,507.84,896c20.9-1,41.82-1.8,62.67-3.6,10.44-.9,21-1.88,31.3-3.65,10.08-1.72,19.67-5.39,29.2-9,19.88-7.46,40.28-13.85,60.74-19.51q31-8.57,62.7-14.11c42.51-7.44,85.56-10,128.61-11.92l23.71-1.07,44.73-2,61.37-2.78,65.91-3,58.35-2.64L1175.8,821l7.47-.34,1.35-.06,6-.27,7.29-.33c.47,0,2,.21,2-.35v-1.41l-29.46,1.33-43.35,2-60.72,2.75-66,3-59.14,2.68-40.2,1.82c-14.18.64-28.37,1.26-42.54,2-43.16,2.28-86.08,6.41-128.41,15.42q-31.51,6.71-62.26,16.44c-10.19,3.21-20.42,6.41-30.48,10-9.61,3.46-19.07,7.45-29,10s-20.66,3.41-31,4.43-20.91,1.77-31.38,2.38c-20.83,1.21-41.7,1.89-62.52,3.29s-41.46,3.55-61.84,7.65a291.35,291.35,0,0,0-30.53,7.82c-10.08,3.19-20,6.88-30,10.34-40,13.82-80.35,27-121.9,35.21A424.56,424.56,0,0,1,177,964.6c-21.55,1-43.07-.22-64.49-2.6-23.11-2.57-46.12-6.15-69.14-9.44L.09,946.36c0,1-.41,1.62.58,1.77l2.76.4,10.85,1.55,31.51,4.51c24.1,3.45,48.19,7.23,72.41,9.7A392.75,392.75,0,0,0,182.61,966a440.33,440.33,0,0,0,62.21-8.68c41.45-8.64,81.73-22,121.67-35.87l17.9-6.24Z"/><path class="cls-1" d="M938.05,878c19.25-1.67,38.56-2.93,57.88-3.17a546.07,546.07,0,0,1,57.66,2.52c21.56,2,43,4.88,64.56,7.28,21.71,2.42,43.44,4.1,65.28,4.62q8.24.2,16.48.26v-1.41c0-.54-2.11-.28-2.63-.28q-4.28,0-8.55-.12-8.23-.15-16.45-.46-16.32-.62-32.59-2.09c-21.46-1.93-42.83-4.76-64.24-7.19-20.75-2.35-41.56-4.3-62.44-4.73-17.74-.37-35.48.26-53.17,1.42-19.58,1.29-39.08,3.06-58.69,4-20.37,1-40.75,1.62-61.14,2.18q-36.82,1-73.64,1.6-40.06.69-80.12,1.12-40.29.45-80.58.73-37.51.27-75,.45-31.71.15-63.42.26-22.9.08-45.81.16l-18.1.1-28.28.2-48.57.34-61.2.43-66.16.46-63.46.44-53.09.37-35.06.24c-11.4.08-22.79.18-34.19.18q-6.62,0-13.24,0v1.41c0,.54,2.13.28,2.65.28l8.61,0q8.23,0,16.46,0l10.28-.07,6.4,0,31.92-.22,51-.36,62.47-.44,66.24-.46,62.35-.43,50.8-.35,31.58-.22,15.88-.1q21.42-.1,42.84-.16,30.65-.11,61.29-.24,36.86-.17,73.73-.42,40.07-.28,80.14-.69,40.27-.42,80.54-1.06,37.46-.61,74.92-1.52c21.1-.54,42.19-1.17,63.27-2.09,14.86-.64,29.73-1.36,44.56-2.65Z"/><path class="cls-1" d="M600,1003.88c38.25-15.61,78.23-27.18,119.1-33.38a437.8,437.8,0,0,1,124.37-1.06c21.53,2.9,42.86,7,64.25,10.73s43.1,7.14,64.73,10.13c43.33,6,86.86,10.48,130.48,13.73q48.43,3.61,97,5.28v-1.41c0-.54-2.1-.34-2.62-.35l-8.51-.32q-8.19-.33-16.37-.7-16.37-.75-32.74-1.72-32.73-1.93-65.4-4.77c-43.52-3.8-86.92-8.9-130.1-15.56-21.48-3.31-42.86-7.2-64.27-10.95s-42.7-7.15-64.28-8.72c-41.23-3-82.8.32-123.24,8.77a518.66,518.66,0,0,0-59.79,16.34q-14.71,5-29.13,10.75a126.85,126.85,0,0,1-26.88,7.92c-36.56,6-73-4.63-109-9.55A209.39,209.39,0,0,0,442,996.91c-9.66-.13-19.34.86-29,1.46q-32.21,2-64.43,3.79c-43.51,2.37-87.05,4.31-130.61,5.6-44.05,1.3-88.13,1.93-132.2,1.65q-42.85-.27-85.67-1.76v1.41c0,.55,2.13.34,2.65.35l8.63.28q8.3.26,16.59.47,16.58.42,33.17.66,33.11.47,66.23.26c43.89-.27,87.77-1.36,131.63-3,43.28-1.66,86.53-3.91,129.77-6.5q16-1,32-2c9.1-.58,18.13-1.25,27.26-.77,17.75.93,35.27,4.42,52.74,7.45C533.49,1011.91,568.33,1016.8,600,1003.88Z"/><path class="cls-1" d="M814.18,1021.78c21.55.29,42.82,4.45,63.77,9.22,21.14,4.81,42.21,9.83,63.46,14.17q63.81,13,128.5,21.1c43,5.45,86.12,9.41,129.35,12.13l.65,0V1077c0-.55-2.07-.39-2.6-.43l-8.43-.55q-8.11-.55-16.21-1.16-16.21-1.22-32.4-2.68-32.39-2.93-64.67-6.91-64.68-8-128.66-20.72c-21.31-4.28-42.46-9.16-63.63-14.06s-42.3-9.37-63.92-10.26c-20.44-.85-40.77,1.94-60.83,5.65-20.66,3.83-41,8.65-61.28,14.2-20,5.48-40,11.22-60.41,15.28a314.34,314.34,0,0,1-62.53,5.78c-43-.12-85.78-6.9-127.68-16.34-21.07-4.74-42-10.16-62.82-15.85-20.65-5.64-41.14-12-62.16-16.18-21.29-4.22-42.83-5.26-64.48-4.86-21.42.4-42.85,1.52-64.26,2.46-43.4,1.91-86.8,4.26-130,8.6q-17,1.7-33.88,3.84-8.56,1.08-17.1,2.27l-8.56,1.21a18.67,18.67,0,0,0-3.29.55v1.61c43.13-6.3,86.48-10.46,130-13.16,21.62-1.35,43.26-2.4,64.9-3.34,21.37-.93,42.77-2.08,64.16-2.41,21.64-.33,43.1.92,64.34,5.29s41.67,10.77,62.43,16.41c41.6,11.29,83.62,21.6,126.41,27.24,41.92,5.52,84.72,6.74,126.32-1.75,20.33-4.15,40.27-9.9,60.28-15.36,20.22-5.52,40.55-10.28,61.17-14.06,17.85-3.27,35.93-5.79,54.11-5.55Z"/><path class="cls-1" d="M1199.91,1176.6v-1.67c-44,3.08-88.16,4.7-132.28,3.88-19-.35-38-1.11-56.94-3.05a527,527,0,0,1-58.89-9.95c-21.15-4.63-42.17-9.92-63.44-14a589.41,589.41,0,0,0-63.29-8.62c-42.67-3.54-85.6-2.87-128.27.27-21.46,1.58-42.86,3.78-64.21,6.41-21,2.58-41.87,6-63,7.69-41.58,3.38-83.48,1.88-124.87-3.1-41.63-5-82.8-13.52-123.29-24.34-20.47-5.47-40.71-11.68-60.91-18-20.45-6.44-41.06-12.52-62.33-15.58-21-3-42.27-3.61-63.47-3.56-21.92.05-43.85.54-65.77,1.13q-18.55.5-37.09,1.18-9.28.34-18.56.73l-9.28.4a32.61,32.61,0,0,0-4,.25v1.6c44-2,88.1-3.42,132.17-3.62,21.29-.1,42.65.38,63.77,3.26s41.81,8.81,62.22,15.22c40.24,12.63,80.68,24.22,122,32.6,41,8.3,82.67,13.78,124.52,15.09a578.29,578.29,0,0,0,62.36-1.33c21.08-1.62,41.94-5,62.9-7.58,42.67-5.33,85.61-9,128.63-9.37,42.68-.36,85.48,2.61,127.45,10.58,41.05,7.8,81.24,19.8,122.9,24.21,18.79,2,37.69,2.79,56.57,3.18,22,.45,44.09.28,66.12-.37C1154.48,1179.39,1177.21,1178.19,1199.91,1176.6Z"/><path class="cls-1" d="M219.07,1153c42.74-5.42,85.41-11.35,128.09-17.2,43.18-5.92,86.36-11.77,129.63-17q32.43-3.9,64.92-7.25c21.51-2.19,43.07-3.76,64.58-5.86,21.1-2.06,42-5.88,63-8.78,10.56-1.46,21.15-2.69,31.79-3.35,10.79-.67,21.61-.64,32.41-.31,38,1.15,75.78,6.37,113.42,11.57l37.88,5.23,63.94,8.82,44.48,6.14c31.67,4.37,63.36,8.7,94.76,14.72,37.69,7.22,74.42,18.43,112,26.32v-1.44c0-.58-2-.7-2.57-.81q-4.18-.9-8.34-1.85-8-1.83-16-3.81c-10.5-2.59-21-5.32-31.45-8-21-5.33-42.14-10.1-63.48-13.95-28.69-5.17-57.58-9.1-86.46-13.09l-47.71-6.59-63.53-8.77-33.83-4.67c-41-5.66-82.12-11.33-123.55-11.72-42.76-.4-84.44,10.05-126.9,13.48-43.37,3.5-86.63,8.21-129.82,13.51s-86.45,11.22-129.63,17.15c-42.68,5.87-85.37,11.69-128.11,17.1-43.36,5.49-86.73,10.91-130.2,15.39q-20.68,2.13-41.4,4-10.53.92-21.07,1.74l-10.54.79-5.27.38c-.19.28,0,1.31,0,1.67,43.91-3.07,87.7-7.62,131.4-12.75,29.22-3.43,58.4-7.13,87.58-10.83Z"/><path class="cls-1" d="M935.9,1166.83c43.35.37,86.77.6,129.9-4.39s85.6-13.34,128.91-16.09l5.2-.31c.19-.27,0-1.32,0-1.67-21.75,1.23-43.36,3.6-64.93,6.65-21.39,3-42.72,6.51-64.17,9.15-43.09,5.29-86.44,5.42-129.79,5-4.89,0-9.77,0-14.67.12l-28.2.48-43.64.75-55.86,1-64.85,1.1-70.61,1.19L590,1171l-72.46,1.21L449,1173.38l-61.41,1-51,.81-37.45.57c-34.08.49-68.17,1-102.25,1.1-41.48.18-83.1.41-124.5-2.6A540.61,540.61,0,0,1,.09,1164.4v1.44c0,.58,2,.68,2.51.79q4.08.84,8.17,1.62,7.87,1.48,15.79,2.67c10.54,1.6,21.13,2.85,31.74,3.85,20.65,1.93,41.37,2.86,62.1,3.31,42.41.94,84.86.51,127.28,0q32-.37,64.08-.86l43.07-.67,55.41-.89,64.54-1.06,70.43-1.17,73.1-1.23,72.55-1.22,68.77-1.17,61.77-1.05,51.53-.88,38.08-.65,21.4-.37Z"/><path class="cls-1" d="M420.85,1165.19c37.2-1.18,72-17.69,106.25-30.44,17.17-6.38,34.7-12.27,52.85-15.11a184.62,184.62,0,0,1,27.93-1.75q16.44-.08,32.87,0c43.9.15,87.79.89,131.68,1.25s87.58.33,131.34-1.06c21.78-.69,43.54-1.73,65.28-3.23s43.27-3.56,64.9-5.43c43.79-3.77,87.61-7.08,131.49-9.48q9.94-.54,19.88-1l9.94-.48,4.64-.21c.19-.27,0-1.31,0-1.67q-66.1,3-132.06,8.37c-43.4,3.51-86.73,8-130.23,10.13-43.66,2.17-87.38,2.71-131.09,2.62-43.87-.09-87.74-.82-131.62-1.22-21.91-.2-43.82-.31-65.74-.22-9.45,0-18.77.19-28.13,1.58a199.46,199.46,0,0,0-26.34,6c-35.78,10.44-69.25,28-105.77,36.07-19.38,4.27-39.11,4.2-58.86,4.13-21.86-.07-43.7-.88-65.52-2.13-43.31-2.49-86.49-6.75-129.7-10.59-43.43-3.85-86.94-7.26-130.56-8q-17.38-.29-34.76,0-8.52.17-17,.51-4.26.17-8.51.39a30.11,30.11,0,0,0-3.92.28v1.6c43.76-2.48,87.64-1.1,131.34,1.81,43.27,2.88,86.42,7.28,129.62,11,43.39,3.71,86.9,6.72,130.47,6.8q14.67,0,29.34-.42Z"/><path class="cls-1" d="M600,1052c43.79-.43,87.59.23,131.39-.59,21.87-.41,43.73-1.19,65.55-2.67s43.45-4,65.13-6.43,43.31-4.73,65.08-5.3,43.32.78,64.86,3c42.92,4.36,85.67,10.82,128.35,17,26.51,3.87,53,7.81,79.54,11.59v-1.42c0-.56-2.09-.56-2.63-.64l-8.54-1.22-16.39-2.37-32.51-4.76q-32.29-4.74-64.6-9.32c-21.38-3-42.79-5.89-64.23-8.45s-42.71-4.61-64.18-5.1c-43.81-1-87,6.39-130.52,10.24-43.69,3.86-87.58,4.52-131.42,4.62-43.58.09-87.15-.31-130.71,1.19-43.23,1.49-86.41,4.33-129.53,7.62-43.37,3.32-86.71,7.11-130.07,10.51s-86.84,6.44-130.33,8.22-86.89,2.32-130.32.75Q17,1077.83.09,1076.77v1.41c0,.55,2.08.39,2.6.42l8.46.48q8.14.44,16.28.77,16.28.67,32.56.95,32.58.57,65.17-.2c43.5-1,87-3.42,130.36-6.52s86.79-6.84,130.18-10.37c43.2-3.51,86.43-6.81,129.72-9C543.59,1053.23,571.79,1052.24,600,1052Z"/><path class="cls-1" d="M1033.07,1058.6c42.94-8.5,85.9-17,129.08-24.2q10.73-1.79,21.48-3.47,5.2-.81,10.41-1.59l5.21-.77c1-.15.65-.85.65-1.78-43.37,6.33-86.48,14.35-129.49,22.75-42.54,8.31-85,16.91-127.74,24.27s-85.76,13.67-129,17.92a1096.15,1096.15,0,0,1-129.58,5.54c-21.62-.44-43.22-1.65-64.74-3.74s-43.14-5-64.8-6.69a1131.46,1131.46,0,0,0-130.05-2.65c-21.54.79-43,2.3-64.57,3.46-21.84,1.18-43.7,2.17-65.57,2.63a1301.47,1301.47,0,0,1-131-4.23c-43.6-3.48-87-8.67-130.38-14.55q-16.48-2.24-32.95-4.59v1.42c0,.56,2,.55,2.58.63l8.38,1.18,16.16,2.24q16.2,2.22,32.42,4.3c21.69,2.78,43.42,5.33,65.18,7.53,43.53,4.4,87.23,7.4,131,7.92s87.32-1.77,130.91-4.34c43.16-2.54,86.28-3.52,129.5-1.62q32.59,1.43,65.05,4.79c21.58,2.25,43.06,5,64.73,6.39a983.14,983.14,0,0,0,129.71-.75c43.31-2.95,86.43-8.25,129.32-14.91s85.51-14.66,128.07-23.09Z"/><path class="cls-1" d="M600,970.16a251,251,0,0,0,27.63-1.8c11.91-1.28,23.78-2.94,35.63-4.75,25.52-3.89,50.93-8.5,76.27-13.39q25.72-5,51.35-10.35c7-1.47,14-2.51,21-3.63,21.44-3.41,42.9-6.75,64.41-9.71,43.31-6,86.92-10.45,130.67-10.93,43.53-.47,87,3,130.36,5.9,20.85,1.39,41.7,2.57,62.58,3.33v-1.41c0-.54-2.09-.34-2.61-.36l-8.49-.34q-8.15-.35-16.29-.77c-10.83-.56-21.66-1.24-32.49-2-21.59-1.43-43.16-3-64.76-4.22-21.87-1.22-43.78-2-65.69-1.88s-43.65,1.33-65.4,3.19c-43.36,3.72-86.42,10.17-129.39,17-7.86,1.25-15.75,2.35-23.54,4q-9.76,2.06-19.54,4-33.91,6.91-68,13c-24.81,4.42-49.72,8.59-74.79,11.35a266.78,266.78,0,0,1-28.05,2,598.11,598.11,0,0,1-60.7-3.21c-41.83-4.1-83.24-11.5-124.57-18.95s-82.47-15-124.14-19.46c-20.52-2.2-41.13-3.63-61.76-3.86-21.36-.24-42.75.6-64.1.94-43.79.71-87.59,1.07-131.38.2q-17.07-.34-34.13-1v1.41c0,.54,2.1.34,2.62.35l8.53.28q8.21.25,16.42.44,16.45.38,32.9.53c21.93.21,43.86.15,65.79-.06s43.56-.57,65.33-1c20.94-.39,41.81-.8,62.74.33,41.63,2.26,82.9,8.66,123.93,15.83,41.46,7.25,82.78,15.35,124.48,21.15C535,966.93,567.47,970,600,970.16Z"/><path class="cls-1" d="M1001.72,914.93c42.2,9.49,84.73,16.71,127.52,23,21.94,3.21,43.9,6.32,65.86,9.46l4.81.69c0-1.42.35-1.63-.91-1.81l-4.14-.59-14.4-2.06-23.64-3.39c-41.63-6-83.29-11.93-124.52-20.33-21.15-4.31-42.1-9.51-63.28-13.67a383.85,383.85,0,0,0-64.89-7.42c-21.7-.52-43.4.62-65,2.15q-8,.57-16.06,1.19a29.1,29.1,0,0,1-3.34.24l-1.59-.07q-11.17-.46-22.34-1-21.81-1-43.62-2-29.6-1.39-59.19-2.89-34.53-1.76-69-3.69-36.6-2.05-73.19-4.37-35.82-2.28-71.62-4.93c-21.46-1.61-42.91-3.35-64.34-5.38-17.14-1.62-34.28-3.39-51.34-5.71-6.36-.86-12.7-1.81-19-2.95-10.72-1.94-21.26-4.77-31.75-7.67-20.88-5.76-41.58-12.23-62.75-16.88a360.85,360.85,0,0,0-63.72-7.72c-21.6-.82-43.23-.26-64.83.46q-33.12,1.09-66.21,2.8-14.92.77-29.84,1.66-7.63.46-15.26.94l-7.3.47c-.53,0-2.65-.11-2.65.44v1.41q66.15-4.41,132.44-6.41c21.46-.62,43-.89,64.39.42A354.1,354.1,0,0,1,260.34,849c28.86,7.13,57.06,17.47,86.41,22.5,14.66,2.51,29.45,4.24,44.23,5.83,19.84,2.14,39.72,3.91,59.61,5.54q34.62,2.84,69.28,5.14,36.61,2.48,73.25,4.62,35.75,2.11,71.51,4,32,1.69,64.07,3.24,25.46,1.23,50.92,2.38,16,.72,32.07,1.4l7.18.3,1.07,0a39.68,39.68,0,0,0,4.47-.34l8.32-.62q8-.59,16.1-1.12c21.61-1.38,43.3-2.19,65-1.14s43.21,4.52,64.52,9c7.81,1.64,15.6,3.39,23.39,5.14Z"/><path class="cls-1" d="M357,859.14c42.5-7.43,85.92-7.33,128.81-3.83,43.3,3.53,86.06,10.85,129.07,16.69a1167.57,1167.57,0,0,0,130.48,10.19,1293.54,1293.54,0,0,0,131.1-3.8c43.91-3.46,87.45-9.83,131.15-15.09s87.6-9.73,131.51-13.39q16.49-1.38,33-2.6,8.25-.61,16.51-1.19l7.92-.54a22.26,22.26,0,0,0,3.3-.29v-1.6q-65.9,4.4-131.61,11.17-32.76,3.38-65.46,7.36c-21.88,2.66-43.7,5.69-65.57,8.38-43.52,5.34-87.28,8.71-131.11,9.83a1218.36,1218.36,0,0,1-130.77-3.56q-32.6-2.67-65-7.21c-21.5-3-42.93-6.45-64.44-9.36-42.86-5.79-86.12-10.08-129.42-8.71a446.22,446.22,0,0,0-64.21,6.72c-21.25,3.78-42.43,8-63.83,10.86s-42.92,4.44-64.43,2.93c-20.69-1.46-41.12-5.55-61.09-11.05-40.48-11.16-79-28-118.56-42C29.79,813.89,15.05,809.1.09,805.13v1.45c0,.59,1.94.79,2.49.94q4,1.1,8.06,2.28,7.74,2.26,15.41,4.77c10.22,3.32,20.36,6.91,30.45,10.63,19.69,7.25,39.19,15,58.91,22.14,39,14.16,79.47,26.23,121.28,27,40.64.73,80.56-8.2,120.37-15.16Z"/><path class="cls-1" d="M880.69,830.91c42.34-8.72,84.4-18.89,127-26.21,42.15-7.25,85.09-11.77,127.88-8.71a345.34,345.34,0,0,1,64.32,10.87V805.4c0-.59-2-.79-2.51-.93q-4.08-1.06-8.19-2-7.88-1.86-15.84-3.35-15.78-2.93-31.79-4.31a419,419,0,0,0-63.92-.43c-43,2.8-85.45,11-127.53,19.92-21.15,4.51-42.24,9.24-63.41,13.67a431.85,431.85,0,0,1-58.57,8.32c-41.32,2.88-82.89.32-123.95-4.64-21.49-2.59-42.89-5.88-64.22-9.58-21-3.64-41.85-8.51-63-10.88-41-4.58-82.27-1-123.06,3.57C412.73,819.34,371.52,825.08,330,825c-21.38,0-42.77-1.79-64.09-3.23-21.6-1.45-43.19-3-64.8-4.26-43.73-2.54-87.44-3.1-131.23-1.93q-18.67.5-37.32,1.25-9.44.37-18.88.78l-9.08.4-4.53.2c-.19.27,0,1.32,0,1.67,43.6-1.95,87.23-3.67,130.89-3.25s86.91,3.56,130.3,6.5c21.42,1.45,42.9,3.25,64.37,3.51a602.76,602.76,0,0,0,62-2.9c41.41-3.78,82.6-10.1,124.16-12.14a417,417,0,0,1,61.44,1.08c21.18,2.1,42,6.87,63,10.51,42.2,7.35,84.76,13.24,127.59,15.22,39.05,1.81,78.54.38,116.92-7.53Z"/><path class="cls-1" d="M1199.91,750v-1.42c0-.56-2-.57-2.49-.65-2.76-.43-5.53-.81-8.3-1.19q-8-1.11-16.06-2.07-16.09-1.93-32.23-3.3c-21.55-1.85-43.15-3-64.77-3.7-43.22-1.33-86.47-.62-129.67.89-43,1.5-85.93,4.06-128.93,5.12-43.75,1.07-87.52,1-131.29.66q-32.91-.27-65.82-.67c-21.1-.22-42.07-.53-63.07-2.78-42.07-4.5-83.4-14.14-124.24-25-20.55-5.45-41-11.24-61.51-16.93s-41.26-11.2-61.6-17.87C269.86,668,229.88,652.41,187.62,648a194.71,194.71,0,0,0-62.37,3.5c-20.36,4.51-40,11.68-59.53,18.84-11.62,4.26-23.23,8.53-35,12.27Q22,685.4,13.26,687.7q-4.37,1.14-8.77,2.17l-4.4,1c-.2.31,0,1.32,0,1.7,21-4.62,41.28-11.51,61.45-18.89,19.62-7.18,39.24-14.57,59.59-19.48a194,194,0,0,1,62.22-4.89c21,1.78,41.54,6.55,61.7,12.42,20.43,6,40.48,13.08,60.68,19.76,20.41,6.75,41.08,12.37,61.79,18.11,41.06,11.38,82,23.25,123.73,32.13,20.59,4.38,41.34,8,62.26,10.42s41.86,2.93,62.92,3.15c43.89.46,87.79,1,131.69.92q65.16-.17,130.22-3.15c42.95-2,85.91-3.83,128.9-4.31,43.22-.49,86.48.4,129.57,3.94Q1168.47,745.31,1199.91,750Z"/><path class="cls-1" d="M600,691.35c43.63-.9,87.24,1.33,130.8,3.63,43.2,2.29,86.45,4.67,129.73,4,21.48-.32,43-1.38,64.33-3.58,21.66-2.23,43.19-5.78,64.73-8.94,43.2-6.33,86.46-12.45,130-16.32q21.21-1.88,42.48-3,10.77-.53,21.56-.82,5.22-.13,10.45-.2l5.22-.05c1,0,.65-.76.65-1.67-43.73.25-87.36,4.11-130.74,9.42-21.69,2.65-43.33,5.67-65,8.8s-43.2,6.63-64.87,9.41c-42.77,5.49-86,6.07-129,4.83-43.48-1.24-86.89-4.31-130.35-6.1-42.58-1.76-85.25-2.47-127.7,1.91-41,4.23-81.53,11.73-122.34,17.24-41,5.54-82.54,9-123.88,5.32-43-3.85-84.82-15.82-126.48-26.69-21.12-5.51-42.33-10.8-63.81-14.74A569,569,0,0,0,51,665.93q-14-.93-28-1.27-6.85-.17-13.71-.21-3.59,0-7.19,0c-.46,0-2-.29-2,.27v1.41c43.45-.25,86.89,3.23,129.45,12.15,42.37,8.88,83.7,22.05,126.08,30.89a423.93,423.93,0,0,0,63.31,8.71,478.47,478.47,0,0,0,62.05-.93c41.13-3.09,81.78-10.24,122.55-16.23C535.49,696,567.65,692,600,691.35Z"/><path class="cls-1" d="M397.39,580.38c6.68-1.67,13.89-1.88,20.73-2.38,13.31-1,26.65-1.59,40-2.12,18.5-.74,37-1.26,55.51-1.68q33.65-.76,67.3-1.07,37.68-.37,75.36-.29,39.84.08,79.68.67,40.14.6,80.26,1.81,38.57,1.18,77.11,3.11c23.43,1.21,46.84,2.67,70.22,4.6,19.91,1.64,39.8,3.59,59.6,6.25,24.18,3.26,48,8.39,71.82,13.48,34.85,7.44,69.7,15,104.95,20.32v-1.42c0-.56-2.06-.58-2.6-.66q-4.23-.65-8.45-1.35-8.11-1.33-16.2-2.8c-10.76-1.94-21.5-4-32.21-6.21-21.25-4.32-42.44-9-63.66-13.43-20.31-4.26-40.55-8-61.14-10.57-20.4-2.55-40.87-4.43-61.36-6-23.79-1.83-47.61-3.23-71.45-4.37q-38.88-1.87-77.8-2.91-40.2-1.13-80.42-1.63-39.66-.52-79.32-.52-37.24,0-74.48.41-33,.38-65.91,1.17c-17.88.44-35.75,1-53.61,1.75-12.54.54-25.08,1.14-37.59,2.17-3.88.32-7.76.67-11.62,1.18-7.44,1-14.67,3.27-21.93,5.08-41.89,10.4-83.86,20.56-126.26,28.7S168.79,625.9,125.72,628A630.23,630.23,0,0,1,.09,621.4v1.42c0,.57,2.06.57,2.59.65q4.21.62,8.44,1.2,8.11,1.11,16.25,2,16.2,1.84,32.48,2.8a619.93,619.93,0,0,0,64.48.22c43.06-2,85.84-8.05,128.15-16.12s84.34-18.2,126.21-28.59l18.7-4.65Z"/><path class="cls-1" d="M113.83,809.36C152.7,803.6,189.45,789,226,775.25c39.8-14.91,80-29.23,121.66-38.19,20.1-4.32,40.61-7.79,61.22-7.89,20.14-.1,40.19,2.57,59.92,6.39,40,7.75,78.92,20.32,119.26,26.2,24.8,3.62,50.1,3.31,75.11,3.47,29.7.19,59.65.57,89,5.53,21.3,3.6,41.84,10.35,62.56,16.29A361,361,0,0,0,878,799.41c22.5,2.29,45.12,2.89,67.71,3.61L983,804.2l59.37,1.89,65.86,2.1,56.81,1.81,32.23,1,2.6.08c0-1.65.35-1.66-1-1.7l-3.58-.11-14.1-.45-49.18-1.57-64.2-2-63.7-2-47.66-1.52c-9.87-.31-19.75-.61-29.62-1-21.3-.75-42.62-1.83-63.74-4.79-21.43-3-42.1-8.72-62.81-14.86s-41.54-11.62-63.1-14.12c-10.62-1.23-21.29-2-32-2.44-9.32-.42-18.69-.92-28-.91-20.18,0-40.38-.14-60.55-.95-34.8-1.4-68.62-10.13-102.3-18.41-39-9.6-79-19.12-119.54-16.23-20.69,1.48-41.33,5.68-61.45,10.6-20.52,5-40.74,11.23-60.73,18-18.55,6.31-36.91,13.13-55.24,20-18.68,7-37.37,14.09-56.47,19.93-20.28,6.21-41,10.88-62.11,12.85-21.38,2-42.88,1.69-64.31,1.07-11.49-.34-23-.72-34.47-1.09,0,.26-.14,1.66.1,1.67l1.5,0,6.46.21,14.29.46c18.63.59,37.29,1.21,55.93.58a314.36,314.36,0,0,0,35.46-3Z"/><path class="cls-1" d="M1068.69,520.77c42.34-4.11,81-23.5,121.14-35.89q3.75-1.16,7.53-2.23c.55-.16,2.55-.39,2.55-1v-1.46c-40.69,11.12-78.9,30.94-120.82,37.55s-83.87-3.46-123.74-16.21c-20.42-6.53-40.6-13.79-61.08-20.15a440,440,0,0,0-62.22-14.76c-41.68-6.55-84-7.14-126.1-6.46-42.32.68-84.57,2.23-126.9,1.27-43.76-1-87.48-3.32-131.22-4.79C404.51,455.2,361.27,455,318,457c-43,2-86,3.86-129,4.39-43.25.54-86.56-.28-129.69-3.73-19.8-1.58-39.56-3.73-59.22-6.55v1.42c0,.56,2,.55,2.57.63q4.17.59,8.35,1.13,8,1,16.08,2,16.1,1.81,32.26,3.1c21.56,1.72,43.18,2.79,64.8,3.35,43.22,1.13,86.46.28,129.66-1.29,42.94-1.57,85.83-4.4,128.81-4.35,43.65.05,87.27,2.08,130.88,3.85,43.09,1.75,86.16,3.14,129.29,2.34,42.2-.79,84.42-2.64,126.62-.86a550.66,550.66,0,0,1,62.85,6,440.19,440.19,0,0,1,62.17,14.83c40.49,12.62,80.2,28.92,122.3,35.56a206,206,0,0,0,52,2Z"/><path class="cls-1" d="M389.69,413c21.52-3.86,42.81-8.89,64.05-14a72.56,72.56,0,0,1,12.44-2.21c11-.76,22-.93,33-1.16,17.6-.37,35.21-.56,52.82-.72q32.25-.28,64.49-.37,34-.11,68-.11,31.63,0,63.27.05,25.18,0,50.37.13l29.27.11c22.42.1,44.83-.62,67.16,1.9,42.59,4.8,82.58,21.17,123.75,32.08a353.93,353.93,0,0,0,63.48,10.85c21.38,1.66,42.86,1.63,64.29,1,12.86-.39,25.71-1,38.56-1.61l10.1-.48,4.43-.21c1.2-.06.81-.48.81-1.71-32.26,1.53-64.56,3.48-96.86,2.48a369.44,369.44,0,0,1-63.78-7c-21.15-4.39-41.77-10.88-62.38-17.27C956.49,408.42,936,402.16,915,398.11c-21.23-4.1-42.75-5.16-64.33-5.17-10.15,0-20.3.14-30.45.1l-37.32-.12q-27.81-.07-55.62-.11-32.87,0-65.74,0-33.85,0-67.71.2-30.75.15-61.5.48c-15.71.18-31.42.4-47.12.86-8.13.24-16.51.11-24.58,1.33-.57.09-1.11.21-1.67.35q-7.87,1.91-15.75,3.8c-10.63,2.54-21.28,5-32,7.27q-31.82,6.75-64.15,10.46c-37.28,4.32-74.79,6.1-112.26,7.87l-27.05,1.28L152,429.35l-65.71,3.11-56.68,2.68L.84,436.51c-1.16.05-.75.31-.75,1.7l21.89-1,53.1-2.51,65.45-3.1,58.95-2.79,33.58-1.59c30.25-1.43,60.51-2.84,90.67-5.56,22.09-2,44.12-4.67,66-8.58Z"/><path class="cls-1" d="M270.69,363c20.45-4.46,40.89-9.26,61.56-12.59a516.49,516.49,0,0,1,59.33-5.93c41.95-1.86,84,.74,125.64,6.1,21.65,2.79,43.2,6.35,64.63,10.53,10.5,2,20.93,4.48,31.49,6.18,10.11,1.63,20.3,2.72,30.52,3.36,41.4,2.62,82.82-1.87,124-6.11,20.74-2.14,41.49-4.25,62.31-5.44a545.52,545.52,0,0,1,62.41,0c43.43,2.47,86.78,6.21,130.25,8,43.68,1.81,87.39,1.07,131.06-.56q12.69-.47,25.38-1l12.95-.57,6.45-.29c.8,0,1.29.26,1.29-.59v-1.14c-43.51,2-87.06,3.78-130.62,3.57s-86.94-3.14-130.34-6.11c-21.54-1.47-43.12-3.24-64.7-3.84a585.26,585.26,0,0,0-62.1,2c-41.52,3.27-82.84,9.18-124.5,10.68a407.19,407.19,0,0,1-61.51-2c-21.23-2.46-42-7.65-63.07-11.35-42.16-7.41-84.83-12.39-127.64-13.49-40-1-80.26,1.34-119.56,9.16-42.29,8.41-84.17,18.79-126.65,26.23-42.14,7.39-85.06,12.16-127.88,9.48A341.34,341.34,0,0,1,.09,377.87v1.44c0,.59,2,.75,2.52.88q4.1,1,8.22,1.88,7.9,1.71,15.88,3,15.81,2.61,31.82,3.7a434.66,434.66,0,0,0,63.94-.53c43-3.33,85.36-11.76,127.45-20.82q10.39-2.24,20.77-4.51Z"/><path class="cls-1" d="M786.27,297.94l14.69-.1,39-.27,55.59-.39,64.54-.45,65.82-.46,59.44-.41,45.39-.32,23.68-.17c15.17-.11,30.34-.21,45.52,0V294c0-.54-2.11-.29-2.63-.29l-8.55-.07q-8.19,0-16.37,0t-16.47.1l-5.68,0-30.77.21-50.25.35-62.08.43-66.24.46-62.73.44-51.56.36-32.72.23-15.08.1q-20.46.1-40.92.15-29.89.1-59.77.23-36.33.16-72.65.4-39.78.27-79.55.66-40.24.41-80.48,1-37.71.59-75.42,1.47c-21.47.52-42.94,1.14-64.39,2-15.8.65-31.62,1.37-47.39,2.66-17.69,1.44-35.38,2.79-53.13,3.24a525.66,525.66,0,0,1-55.77-1.58C106,303.09,63.16,295.72,19.7,294.17q-9.8-.35-19.61-.47v1.41c0,.54,2.09.29,2.61.3q4.24.07,8.48.17,8.15.2,16.29.58c10.83.51,21.64,1.34,32.42,2.38,21.44,2.08,42.8,4.95,64.21,7.29,20.28,2.22,40.62,3.92,61,4.16,18.09.21,36.17-.57,54.2-1.87,18.5-1.33,36.94-2.86,55.47-3.71,20.51-.94,41-1.59,61.57-2.14q36.89-1,73.79-1.58,40-.68,80-1.1t80.26-.72q37.25-.27,74.5-.44,31.38-.15,62.76-.25,22.51-.08,45-.16Z"/><path class="cls-1" d="M600,248.78c36.28-14.8,75.46-20.85,114.27-24.28,18-1.59,36-2.6,54-3.76q32.07-2.08,64.16-3.93c43.37-2.48,86.76-4.57,130.17-6,43.95-1.49,87.91-2.34,131.88-2.32q52.74,0,105.46,1.84v-1.41c0-.55-2.13-.34-2.66-.35l-8.63-.29q-8.3-.26-16.6-.47-16.59-.42-33.19-.66-33.13-.48-66.26-.26c-43.91.26-87.82,1.36-131.7,3-43.3,1.66-86.58,3.91-129.83,6.5-20,1.2-40.07,2.51-60.11,3.76-18.52,1.16-37,2.43-55.48,4.53a439.76,439.76,0,0,0-57.73,10.1,294.19,294.19,0,0,0-28.32,8.61c-9.53,3.45-18.79,7.44-28.53,10.3-39,11.48-80.22,10.78-120.35,7-20.68-2-41.27-4.74-61.89-7.26-21.26-2.59-42.54-4.65-63.68-8.12-21.43-3.52-42.75-7.62-64.18-11.11s-43.17-6.62-64.83-9.37c-43.37-5.5-86.92-9.55-130.54-12.4Q37.78,209.93.09,208.62V210c0,.54,2.1.34,2.62.36l8.53.33q8.2.33,16.4.7,16.4.76,32.79,1.72,32.78,1.94,65.5,4.79c43.58,3.82,87.06,8.94,130.29,15.62,21.5,3.32,42.9,7.22,64.33,11,10.75,1.88,21.51,3.67,32.31,5.19,10.61,1.49,21.27,2.52,31.91,3.73,40.89,4.66,81.75,11.44,123,11.5C539.2,265,570.76,260.71,600,248.78Z"/><path class="cls-1" d="M340.2,141.53c43.58-5,87.24-9.63,130.95-13.4s87.55-6.3,131.45-6.68c43.46-.38,86.9-1.93,130.32-4,43.66-2.05,87.29-4.6,130.93-7s87.49-4.6,131.27-6,87.55-1.92,131.33-1q36.76.81,73.46,3.16v-1.41c0-.55-2.1-.4-2.62-.43l-8.52-.52q-8.2-.48-16.4-.87-16.4-.79-32.8-1.26-32.82-1-65.65-.81c-43.8.13-87.59,1.5-131.34,3.44s-87.45,4.45-131.17,6.86c-43.56,2.4-87.12,4.72-130.71,6.26q-32.54,1.15-65.1,1.65c-21.86.31-43.71.54-65.55,1.52-43.95,2-87.79,5.84-131.55,10.29q-32.72,3.32-65.42,6.94c-21.61,2.42-43.2,5.15-64.9,6.67a462.8,462.8,0,0,1-65.32-.06c-21.12-1.5-42.15-4.12-63.15-6.84-43.25-5.6-86.37-12.06-129.52-18.38q-15-2.2-30.09-4.36v1.42c0,.56,2.07.56,2.61.64l8.48,1.22,16.26,2.37,32.23,4.73q32.33,4.74,64.69,9.3c21.3,3,42.61,5.83,64,8.29s42.92,4.35,64.48,4.53c29.26.26,58.37-3,87.39-6.38Z"/><path class="cls-1" d="M600,58.45c43.45-3.72,87-6.2,130.53-8.5s86.95-4.42,130.37-7.43Q925.52,38,989.71,29.86c43.44-5.5,86.9-10.89,130.47-15.31q21-2.14,42.13-3.94,10.55-.9,21.1-1.69L1194,8.15l5.28-.36c1-.07.66-.79.66-1.71C1156,9,1112.3,13.44,1068.64,18.51c-43.08,5-86,11.13-129.16,15.63S853.24,41.57,810,44c-43.51,2.48-87,4.49-130.55,7.09-21.74,1.3-43.47,2.75-65.18,4.48-9.76.78-19.51,1.38-29.09,3.5a211,211,0,0,0-26.38,8c-17.62,6.41-34.86,14.07-53,18.82A117.31,117.31,0,0,1,478.89,90c-10.77.24-21.59-.2-32.35-.79C412.67,87.36,379,82.67,345.45,78l-42.76-5.9-64-8.84-39.8-5.49C163.28,52.89,127.67,48,92.49,40.66,61.46,34.19,31,25.2.09,18.35v1.44c0,.58,2,.72,2.58.84q4.18.94,8.36,1.93,8,1.9,16,3.91c10.51,2.64,21,5.38,31.51,8Q90,42.38,122,48c27,4.7,54.23,8.39,81.4,12.14L253,67l63.13,8.71L347.27,80c43.1,5.95,86.41,11.92,130,11.72,37.6-.17,70.55-22.19,106.36-30.56A115.33,115.33,0,0,1,600,58.45Z"/><path class="cls-1" d="M28.39,35.94C71.47,31.31,114,22.57,157.3,19.64c21.66-1.47,43.39-1.87,65.1-1.89,10.74,0,21.49.07,32.23.16,1.46,0,2.88,0,4.33-.05q14.61-1,29.22-1.94,29.45-1.92,58.91-3.7,37.7-2.29,75.42-4.33,39.37-2.12,78.76-3.83c23-1,45.93-1.81,68.91-2.2C599,1.36,627.89,2.26,656.74,3c43.94,1.15,87.88,2.59,131.83,3.52Q853.74,7.91,918.9,7c43.45-.58,86.9-1.06,130.36-.68,41.21.37,82.6,1.7,123.34,8.39,9.16,1.5,18.25,3.32,27.31,5.33V18.62c0-.58-2-.72-2.59-.84q-4.21-.92-8.44-1.77-8-1.61-16-2.93c-10.53-1.73-21.11-3.1-31.73-4.19-20.73-2.13-41.56-3.2-62.39-3.74C1036.5,4,994.19,4.47,951.92,4.94,908.6,5.42,865.3,6.06,822,5.46c-43.87-.61-87.73-1.95-131.59-3.19C655.14,1.27,619.85-.16,584.59,0c-21.44.11-42.87.8-64.29,1.6-25.84,1-51.67,2.19-77.49,3.53s-51.69,2.79-77.52,4.32q-32.19,1.91-64.37,4-19,1.22-38,2.5c-2.55.17-5,.34-7.6.32-21.61-.19-43.22-.34-64.83.22C168.68,17,147,18.39,125.33,21S82.5,27,61.1,30.07c-10.94,1.57-21.9,3-32.89,4.21q-8.16.88-16.34,1.54-4.25.35-8.51.64a22.36,22.36,0,0,0-3.28.29v1.6q14.17-.92,28.3-2.42Z"/></g></g></svg>
